<svg id="Layer_1" data-name="Layer 1" xmlns="http://www.w3.org/2000/svg" width="499.246" height="187.689" viewBox="0 0 499.246 187.689">
  <defs>
    <style>
      .cls-1 {
        fill: #fff;
      }
    </style>
  </defs>
  <g>
    <path d="M197.98,258.415a42.855,42.855,0,0,0-3.545-5.139q-7.242-9.849-14.528-19.666c-2.428-3.253-4.239-3.007-5.733.814q-4.085,10.443-8.008,20.949-8.5,22.666-16.9,45.37a9.533,9.533,0,0,0,1.086,9.473c5.925,7.976,11.783,16,17.753,23.946.6.8,1.972,1.779,2.653,1.574a4.546,4.546,0,0,0,2.518-2.487c4.723-12.318,9.327-24.681,13.95-37.037q6.057-16.188,12.09-32.387v-.912A22.8,22.8,0,0,0,197.98,258.415Zm-21.124,30.692c-1.223,3.842-4.264,6.523-6.538,5.763-2.154-.719-2.865-4.106-1.647-7.846,1.24-3.811,4.143-6.357,6.421-5.631C177.225,282.074,178.006,285.49,176.856,289.107Zm.625-22.813c-1.223,3.842-4.264,6.522-6.538,5.763-2.154-.719-2.865-4.106-1.647-7.846,1.24-3.811,4.143-6.357,6.421-5.631C177.85,259.261,178.631,262.677,177.481,266.294Zm13.438,10.312c-1.223,3.843-4.264,6.523-6.538,5.764-2.154-.719-2.865-4.107-1.648-7.846,1.241-3.811,4.144-6.357,6.422-5.631C191.288,269.573,192.069,272.99,190.919,276.606Z" transform="translate(0.246 -152.133)"/>
    <path d="M72,284.143c2.333.767,4.718,1.382,7.09,2.024,5.86,1.585,11.742,3.092,17.586,4.733,6.713,1.886,13.381,3.936,20.1,5.818,7.373,2.067,14.786,3.993,22.164,6.043a5.862,5.862,0,0,0,6.85-2.839c.556-1.147.943-2.378,1.4-3.576q9.717-25.738,19.431-51.479c1.576-4.172,3.23-8.315,4.724-12.516,1.279-3.595-.123-6.171-3.687-7.132-2.461-.663-4.921-1.33-7.384-1.982-5.944-1.574-11.906-3.081-17.83-4.727-6-1.669-11.959-3.523-17.961-5.206-7.52-2.109-15.079-4.079-22.595-6.2-3.663-1.035-6.645.391-7.9,3.991-.293.838-.582,1.679-.886,2.513L91,209.524c-.009-.023-.015-.046-.025-.07-.717-1.827-1.238-3.732-1.923-5.573-.762-2.052-2.056-2.595-4.1-1.763q-4.2,1.709-8.371,3.483-22.531,9.636-45.058,19.284c-4.092,1.744-4.565,2.612-3.228,6.644q4.617,13.916,9.228,27.834,3.8,11.408,7.653,22.8c.873,2.566,1.962,3.04,4.47,2.022,2.664-1.082,5.3-2.24,7.947-3.36,3.474-1.468,6.949-2.931,10.77-4.543a19.169,19.169,0,0,1,.26,2.656C68.48,281.656,69.436,283.3,72,284.143Zm22.706-8c-4.268,0-8.108-3.462-7.97-7.4.161-4.57,3.766-7.928,9.852-8.094,3.664-.1,7.237,3.668,7.3,7.418C103.952,271.732,99.143,276.746,94.71,276.141Zm51.493-42.85c4.264.332,7.842,3.454,7.782,7.6-.055,3.755-3.833,8.232-9.131,7.956-4.522-.028-7.937-3.289-8.026-7.395C136.756,238.06,141.014,232.889,146.2,233.291Zm-7.4,18.9c4.651-.062,8.369,3.876,8.1,7.439.071,4.7-4.437,8.413-9.164,8.231-4.677-.18-7.828-3.391-7.9-7.407C129.747,255.9,133.974,252.254,138.8,252.189ZM131.824,270.6c4.443-.037,8.069,3.254,8.13,7.33.062,4.118-3.944,8.188-8.322,8.246-5.334.07-8.676-2.863-8.846-7.448C122.663,275.418,126.411,270.41,131.824,270.6Zm-22.109-47.274c4.253-.1,8.16,3.233,8.049,7.579-.115,4.509-4.024,8.036-9.059,8.015-4.683-.021-7.95-3.022-7.831-7.342C101.022,226.158,105.027,223.432,109.715,223.323Zm-6.847,18.737c4.623-.084,8.232,4.078,7.888,7.808a8.786,8.786,0,0,1-9.327,7.567c-4.768-.229-7.59-3.043-7.488-7.724C94.034,245.459,98.11,242.147,102.868,242.06ZM78.56,213.172c3.543-.432,7.131,3.3,7.212,7.451a8.232,8.232,0,0,1-7.9,8.517,7.28,7.28,0,0,1-7.346-7.547A8.323,8.323,0,0,1,78.56,213.172ZM45.97,242.71a7.277,7.277,0,0,1-7.141-7.679c-.02-4.563,3.5-8.346,7.734-8.321a7.383,7.383,0,0,1,7.293,7.62C53.851,238.683,50.077,242.652,45.97,242.71Zm8.067,31.112c-4.076-.038-7.132-3.4-7.08-7.791a8.16,8.16,0,0,1,7.931-8.159,7.37,7.37,0,0,1,7.208,7.611A8.346,8.346,0,0,1,54.037,273.822Zm12.736-22.784c-4.076-.038-7.132-3.4-7.08-7.791a8.16,8.16,0,0,1,7.931-8.158,7.369,7.369,0,0,1,7.208,7.61A8.346,8.346,0,0,1,66.773,251.038Z" transform="translate(0.246 -152.133)"/>
    <path d="M164.711,335.382q-5.428-7.374-10.877-14.732c-1.978-2.66-3.959-5.32-6.021-7.915a17.446,17.446,0,0,0-10.862-6.673c-4.1-.764-8.06-2.318-12.1-3.446-4.9-1.369-9.841-2.614-14.742-3.994-4.62-1.3-9.2-2.753-13.817-4.056q-10.712-3.019-21.461-5.9c-1.7-.453-3.475-.6-5.215-.892l-.591.741a25.6,25.6,0,0,0,1.867,3.552q8.139,11.029,16.405,21.966c2.558,3.37,5.692,5.934,10.029,6.864,3.734.8,7.4,1.905,11.085,2.936,7.01,1.962,14,3.979,21.011,5.95,6.206,1.745,12.413,3.49,18.635,5.174q8.026,2.175,16.1,4.182a2.052,2.052,0,0,0,1.711-.387c.273-.291.13-1.14-.063-1.654A7.565,7.565,0,0,0,164.711,335.382Zm-70.945-34.52c.588-2.161,3.968-3.088,7.631-2.093,3.891,1.057,6.7,3.98,6.038,6.285-.626,2.182-3.98,3.037-7.768,1.982C95.806,305.96,93.138,303.168,93.766,300.862ZM113.7,318.2c-.578,2.195-3.913,3.123-7.723,2.15-3.883-.991-6.612-3.724-6.034-6.043.541-2.173,3.9-3.174,7.583-2.259C111.435,313.021,114.307,315.882,113.7,318.2Zm7.248-10.113c.486-2.186,3.819-3.271,7.524-2.45,3.937.873,6.88,3.66,6.328,5.994-.523,2.209-3.833,3.222-7.666,2.345C123.222,313.084,120.426,310.421,120.944,308.088ZM139.6,325.5c-.523,2.209-3.833,3.222-7.666,2.345-3.908-.893-6.7-3.556-6.186-5.889.486-2.186,3.819-3.271,7.524-2.45C137.212,320.379,140.155,323.166,139.6,325.5Z" transform="translate(0.246 -152.133)"/>
    <path d="M36.6,266.545c-4.1-12.219-8.121-24.464-12.381-36.626a7.776,7.776,0,0,0-3.552-3.7,45.216,45.216,0,0,0-6.98-2.55q-5.89-2.008-11.8-3.97c-1.172-.387-2.267-.234-2.124,1.3a16.566,16.566,0,0,0,1,3.693c2.122,6.237,4.316,12.45,6.409,18.7C10.59,253.6,13.846,263.86,17.449,274a8.144,8.144,0,0,0,3.995,3.881A79.474,79.474,0,0,0,30.61,281.2c3.282,1.119,6.58,2.194,9.621,3.205,2.375-.075,1.867-1.406,1.491-2.549C40.038,276.743,38.311,271.647,36.6,266.545Zm-24.985-23.8c-1.3-4.28.26-8.637,3.452-9.636,2.99-.935,6.373,1.535,7.639,5.578,1.344,4.3-.28,8.871-3.493,9.838C16.172,249.442,12.891,246.946,11.615,242.746Zm14.618,27.6c-3.041.916-6.322-1.58-7.6-5.78-1.3-4.28.26-8.637,3.451-9.635,2.991-.936,6.374,1.535,7.64,5.578C31.07,264.8,29.446,269.377,26.233,270.344Z" transform="translate(0.246 -152.133)"/>
    <path d="M19.685,221.993c3.6,1.3,6.979,1.5,10.49-.421a83.147,83.147,0,0,1,8.457-3.7c3.638-1.487,7.338-2.823,10.959-4.347,9.05-3.81,18.073-7.685,27.1-11.544,2.508-1.072,5-2.181,7.5-3.273l-.095-.756a10.364,10.364,0,0,0-1.861-1.072c-5.16-1.71-10.436-3.12-15.479-5.121a12.494,12.494,0,0,0-11.105.766c-.4.21-.8.416-1.221.589-10.026,4.142-20.076,8.227-30.075,12.435-6.729,2.831-13.393,5.821-20.068,8.781a6.982,6.982,0,0,0-1.46,1.219A5.852,5.852,0,0,0,4.3,216.71C9.42,218.5,14.587,220.151,19.685,221.993Zm20.471-20.426c4.077-1.841,8.6-.854,10,2.183,1.313,2.845-.7,6.518-4.548,8.293-4.086,1.887-8.833.865-10.206-2.2C34.1,206.948,36.155,203.374,40.156,201.567Z" transform="translate(0.246 -152.133)"/>
    <path class="cls-1" d="M131.632,286.173c4.378-.058,8.384-4.128,8.322-8.246-.061-4.076-3.687-7.367-8.13-7.33-5.413-.187-9.161,4.821-9.038,8.128C122.956,283.31,126.3,286.243,131.632,286.173Z" transform="translate(0.246 -152.133)"/>
    <path class="cls-1" d="M108.705,238.917c5.035.021,8.944-3.506,9.059-8.015.111-4.346-3.8-7.678-8.049-7.579-4.688.109-8.693,2.835-8.841,8.252C100.755,235.9,104.022,238.9,108.705,238.917Z" transform="translate(0.246 -152.133)"/>
    <path class="cls-1" d="M137.733,267.859c4.727.182,9.235-3.527,9.164-8.231.272-3.563-3.446-7.5-8.1-7.439-4.826.065-9.053,3.715-8.969,8.263C129.905,264.468,133.056,267.679,137.733,267.859Z" transform="translate(0.246 -152.133)"/>
    <path class="cls-1" d="M144.854,248.844c5.3.276,9.076-4.2,9.131-7.956.06-4.143-3.518-7.265-7.782-7.6-5.189-.4-9.447,4.769-9.375,8.158C136.917,245.555,140.332,248.816,144.854,248.844Z" transform="translate(0.246 -152.133)"/>
    <path class="cls-1" d="M96.592,260.648c-6.086.166-9.691,3.524-9.852,8.094-.138,3.937,3.7,7.4,7.97,7.4,4.433.6,9.242-4.409,9.181-8.075C103.829,264.316,100.256,260.549,96.592,260.648Z" transform="translate(0.246 -152.133)"/>
    <path class="cls-1" d="M101.429,257.435a8.786,8.786,0,0,0,9.327-7.567c.344-3.73-3.265-7.892-7.888-7.808-4.758.087-8.834,3.4-8.927,7.651C93.839,254.392,96.661,257.206,101.429,257.435Z" transform="translate(0.246 -152.133)"/>
    <path class="cls-1" d="M77.869,229.14a8.232,8.232,0,0,0,7.9-8.517c-.081-4.155-3.669-7.883-7.212-7.451a8.323,8.323,0,0,0-8.037,8.421A7.28,7.28,0,0,0,77.869,229.14Z" transform="translate(0.246 -152.133)"/>
    <path class="cls-1" d="M74.832,242.7a7.369,7.369,0,0,0-7.208-7.61,8.16,8.16,0,0,0-7.931,8.158c-.052,4.39,3,7.753,7.08,7.791A8.346,8.346,0,0,0,74.832,242.7Z" transform="translate(0.246 -152.133)"/>
    <path class="cls-1" d="M53.856,234.33a7.383,7.383,0,0,0-7.293-7.62c-4.238-.025-7.754,3.758-7.734,8.321a7.277,7.277,0,0,0,7.141,7.679C50.077,242.652,53.851,238.683,53.856,234.33Z" transform="translate(0.246 -152.133)"/>
    <path class="cls-1" d="M54.888,257.872a8.16,8.16,0,0,0-7.931,8.159c-.052,4.389,3,7.753,7.08,7.791a8.346,8.346,0,0,0,8.059-8.339A7.37,7.37,0,0,0,54.888,257.872Z" transform="translate(0.246 -152.133)"/>
    <path class="cls-1" d="M22.086,254.929c-3.191,1-4.752,5.355-3.451,9.635,1.276,4.2,4.557,6.7,7.6,5.78,3.213-.967,4.837-5.542,3.493-9.837C28.46,256.464,25.077,253.993,22.086,254.929Z" transform="translate(0.246 -152.133)"/>
    <path class="cls-1" d="M22.706,238.688c-1.266-4.043-4.649-6.513-7.639-5.578-3.192,1-4.753,5.356-3.452,9.636,1.276,4.2,4.557,6.7,7.6,5.78C22.426,247.559,24.05,242.983,22.706,238.688Z" transform="translate(0.246 -152.133)"/>
    <path class="cls-1" d="M45.608,212.043c3.846-1.775,5.861-5.448,4.548-8.293-1.4-3.037-5.923-4.024-10-2.183-4,1.807-6.053,5.381-4.754,8.279C36.775,212.908,41.522,213.93,45.608,212.043Z" transform="translate(0.246 -152.133)"/>
    <path class="cls-1" d="M175.717,258.58c-2.278-.726-5.181,1.82-6.421,5.631-1.218,3.74-.507,7.127,1.647,7.846,2.274.759,5.315-1.921,6.538-5.763C178.631,262.677,177.85,259.261,175.717,258.58Z" transform="translate(0.246 -152.133)"/>
    <path class="cls-1" d="M189.155,268.893c-2.278-.726-5.181,1.82-6.422,5.631-1.217,3.739-.506,7.127,1.648,7.846,2.274.759,5.315-1.921,6.538-5.764C192.069,272.99,191.288,269.573,189.155,268.893Z" transform="translate(0.246 -152.133)"/>
    <path class="cls-1" d="M107.522,312.049c-3.683-.915-7.042.086-7.583,2.259-.578,2.319,2.151,5.052,6.034,6.043,3.81.973,7.145.045,7.723-2.15C114.307,315.882,111.435,313.021,107.522,312.049Z" transform="translate(0.246 -152.133)"/>
    <path class="cls-1" d="M107.435,305.054c.661-2.3-2.147-5.228-6.038-6.285-3.663-1-7.043-.068-7.631,2.093-.628,2.306,2.04,5.1,5.9,6.174C103.455,308.091,106.809,307.236,107.435,305.054Z" transform="translate(0.246 -152.133)"/>
    <path class="cls-1" d="M133.275,319.506c-3.705-.821-7.038.264-7.524,2.45-.518,2.333,2.278,5,6.186,5.889,3.833.877,7.143-.136,7.666-2.345C140.155,323.166,137.212,320.379,133.275,319.506Z" transform="translate(0.246 -152.133)"/>
    <path class="cls-1" d="M134.8,311.632c.552-2.334-2.391-5.121-6.328-5.994-3.7-.821-7.038.264-7.524,2.45-.518,2.333,2.278,5,6.186,5.889C130.963,314.854,134.273,313.841,134.8,311.632Z" transform="translate(0.246 -152.133)"/>
    <path class="cls-1" d="M175.092,281.393c-2.278-.726-5.181,1.82-6.421,5.631-1.218,3.74-.507,7.127,1.647,7.846,2.274.76,5.315-1.921,6.538-5.763C178.006,285.49,177.225,282.074,175.092,281.393Z" transform="translate(0.246 -152.133)"/>
  </g>
  <g>
    <path d="M309.564,268.75c36.183-27.095,71.895-53.838,108.073-80.928l21.446,26.664,27.767-39.5L452.9,170.624l37.771-18.491c-1.469,13.111-3.043,27.158-4.67,41.666-2.673-3.82-5.37-7.675-8.317-11.885l-37.936,54.108-24.361-30.394L309.758,284.677c-15.552-10.991-30.928-21.927-46.384-32.749q-9.2-6.442-18.723-12.4a5.667,5.667,0,0,0-4.4-.118c-8.034,3.081-15.53,1.339-20.772-5.08a17.72,17.72,0,0,1-1.256-20.522,17.283,17.283,0,0,1,19.577-7.322c7.972,2.324,12.556,8.558,12.912,17.058.075,1.812.626,4.356,1.887,5.253C271.379,242.158,290.313,255.3,309.564,268.75Z" transform="translate(0.246 -152.133)"/>
    <path d="M499,213.51V339.7H485.12V213.51Z" transform="translate(0.246 -152.133)"/>
    <path d="M393.9,239.064h13.716v100.58H393.9Z" transform="translate(0.246 -152.133)"/>
    <path d="M475.807,249.023V339.56H462.558V249.023Z" transform="translate(0.246 -152.133)"/>
    <path d="M371.3,257.719h13.732v81.955H371.3Z" transform="translate(0.246 -152.133)"/>
    <path d="M225.374,339.71H211.566V262.854h13.808Z" transform="translate(0.246 -152.133)"/>
    <path d="M430.435,339.792H416.812c-.12-2.175-.324-4.17-.326-6.164q-.025-32.092,0-64.186c0-7.172,0-7.17,7.452-7.129,2.031.011,4.061,0,6.492,0Z" transform="translate(0.246 -152.133)"/>
    <path d="M439.675,269.443h13.311v70.129H439.675Z" transform="translate(0.246 -152.133)"/>
    <path d="M234.751,272.334h13.541v67.284H234.751Z" transform="translate(0.246 -152.133)"/>
    <path d="M361.74,339.73H348.7V277.857H361.74Z" transform="translate(0.246 -152.133)"/>
    <path d="M270.949,339.781H257.473V291.572h13.476Z" transform="translate(0.246 -152.133)"/>
    <path d="M339.247,339.78H325.642V298.19h13.605Z" transform="translate(0.246 -152.133)"/>
    <path d="M293.7,339.809h-13.6V305.27h13.6Z" transform="translate(0.246 -152.133)"/>
    <path d="M316.709,339.821H302.962v-21.04h13.747Z" transform="translate(0.246 -152.133)"/>
  </g>
</svg>
