<svg xmlns="http://www.w3.org/2000/svg" width="461.885" height="492.169" viewBox="0 0 461.885 492.169">
  <defs>
    <style>
      .cls-1 {
        fill: #fff;
      }
    </style>
  </defs>
  <g id="Layer_2" data-name="Layer 2">
    <g id="Layer_1-2" data-name="Layer 1">
      <g>
        <g id="Layer_2-2" data-name="Layer 2">
          <g>
            <path d="M.628,486.326v5.215H461.257v-5.215Z"/>
            <g>
              <path d="M461.257,485.7H.628a.622.622,0,0,0-.628.629v5.215a.622.622,0,0,0,.628.628H461.257a.622.622,0,0,0,.628-.628v-5.215A.622.622,0,0,0,461.257,485.7Zm-.629,5.216H1.257v-3.959H460.628Zm-2.111-10.833-23.751-8.608a.221.221,0,0,0-.088-.025V420.54a.652.652,0,0,0-.879-.578.563.563,0,0,0-.252-.051H312.594a.631.631,0,0,0-.628.629l-.189,48.318h-4.838l-.251-115.675a.623.623,0,0,0-.629-.629H156.806a.65.65,0,0,0-.6-.439.622.622,0,0,0-.629.628v116.14l-5.717.2.691-71.592v-.515a.622.622,0,0,0-.629-.628.631.631,0,0,0-.615.5H29.217a.622.622,0,0,0-.628.628v72.17L3.569,481.1a.649.649,0,0,0-.352.716.632.632,0,0,0,.616.49l453.842-.754a15.389,15.389,0,0,0,1.219-.666A.629.629,0,0,0,458.517,480.08Zm-451.794.968,22.105-10.129a.656.656,0,0,0,1.018-.49V398.108H149.291l-.691,71.617v.7a.629.629,0,0,0,1.257,0v-.088l6.371-.226a.625.625,0,0,0,.6-.628V353.811h148.6l.251,115.676a.631.631,0,0,0,.629.628H312.4a.623.623,0,0,0,.629-.628l.188-48.319h120.2v50.2a.621.621,0,0,0,.5.616.644.644,0,0,0,.415.666l21.087,7.641Zm339.022-288.19.1-.214a.63.63,0,1,0-1.156-.5l-.189.427a.736.736,0,0,0-.05.226v.063a29.963,29.963,0,0,1-6.962,20.245.648.648,0,0,0,.088.892,1.377,1.377,0,0,1,.44.2,50.966,50.966,0,0,1,10.958,7.628v.038a.629.629,0,0,0,1.257,0v-.314A87.158,87.158,0,0,0,345.745,192.858Zm-6.774,20.408a30.99,30.99,0,0,0,6.623-16.65,85.69,85.69,0,0,1,3.38,23.549A50.9,50.9,0,0,0,338.971,213.266Zm41.181-9a7.371,7.371,0,0,0-5.479-2.325,7.54,7.54,0,0,0-5.529,2.325,7.426,7.426,0,0,0-2.262,5.466,7.7,7.7,0,0,0,7.791,7.791,7.426,7.426,0,0,0,5.466-2.262,7.54,7.54,0,0,0,2.325-5.529A7.357,7.357,0,0,0,380.152,204.269Zm-.892,10.116a6.224,6.224,0,0,1-4.587,1.885,6.459,6.459,0,0,1-6.535-6.535,6.222,6.222,0,0,1,1.885-4.587,6.335,6.335,0,0,1,4.65-1.948,6.678,6.678,0,0,1,6.535,6.535A6.335,6.335,0,0,1,379.26,214.385Zm.892-10.116a7.371,7.371,0,0,0-5.479-2.325,7.54,7.54,0,0,0-5.529,2.325,7.426,7.426,0,0,0-2.262,5.466,7.7,7.7,0,0,0,7.791,7.791,7.426,7.426,0,0,0,5.466-2.262,7.54,7.54,0,0,0,2.325-5.529A7.357,7.357,0,0,0,380.152,204.269Zm-.892,10.116a6.224,6.224,0,0,1-4.587,1.885,6.459,6.459,0,0,1-6.535-6.535,6.222,6.222,0,0,1,1.885-4.587,6.335,6.335,0,0,1,4.65-1.948,6.678,6.678,0,0,1,6.535,6.535A6.335,6.335,0,0,1,379.26,214.385Zm-33.515-21.527.1-.214a.63.63,0,1,0-1.156-.5l-.189.427a.736.736,0,0,0-.05.226v.063a29.963,29.963,0,0,1-6.962,20.245.648.648,0,0,0,.088.892,1.377,1.377,0,0,1,.44.2,50.966,50.966,0,0,1,10.958,7.628v.038a.629.629,0,0,0,1.257,0v-.314A87.158,87.158,0,0,0,345.745,192.858Zm-6.774,20.408a30.99,30.99,0,0,0,6.623-16.65,85.69,85.69,0,0,1,3.38,23.549A50.9,50.9,0,0,0,338.971,213.266Zm6.774-20.408.1-.214a.63.63,0,1,0-1.156-.5l-.189.427a.736.736,0,0,0-.05.226v.063a29.963,29.963,0,0,1-6.962,20.245.648.648,0,0,0,.088.892,1.377,1.377,0,0,1,.44.2,50.966,50.966,0,0,1,10.958,7.628v.038a.629.629,0,0,0,1.257,0v-.314A87.158,87.158,0,0,0,345.745,192.858Zm-6.774,20.408a30.99,30.99,0,0,0,6.623-16.65,85.69,85.69,0,0,1,3.38,23.549A50.9,50.9,0,0,0,338.971,213.266Zm41.181-9a7.371,7.371,0,0,0-5.479-2.325,7.54,7.54,0,0,0-5.529,2.325,7.426,7.426,0,0,0-2.262,5.466,7.7,7.7,0,0,0,7.791,7.791,7.426,7.426,0,0,0,5.466-2.262,7.54,7.54,0,0,0,2.325-5.529A7.357,7.357,0,0,0,380.152,204.269Zm-.892,10.116a6.224,6.224,0,0,1-4.587,1.885,6.459,6.459,0,0,1-6.535-6.535,6.222,6.222,0,0,1,1.885-4.587,6.335,6.335,0,0,1,4.65-1.948,6.678,6.678,0,0,1,6.535,6.535A6.335,6.335,0,0,1,379.26,214.385Zm.892-10.116a7.371,7.371,0,0,0-5.479-2.325,7.54,7.54,0,0,0-5.529,2.325,7.426,7.426,0,0,0-2.262,5.466,7.7,7.7,0,0,0,7.791,7.791,7.426,7.426,0,0,0,5.466-2.262,7.54,7.54,0,0,0,2.325-5.529A7.357,7.357,0,0,0,380.152,204.269Zm-.892,10.116a6.224,6.224,0,0,1-4.587,1.885,6.459,6.459,0,0,1-6.535-6.535,6.222,6.222,0,0,1,1.885-4.587,6.335,6.335,0,0,1,4.65-1.948,6.678,6.678,0,0,1,6.535,6.535A6.335,6.335,0,0,1,379.26,214.385Zm-33.515-21.527.1-.214a.63.63,0,1,0-1.156-.5l-.189.427a.736.736,0,0,0-.05.226v.063a29.963,29.963,0,0,1-6.962,20.245.648.648,0,0,0,.088.892,1.377,1.377,0,0,1,.44.2,50.966,50.966,0,0,1,10.958,7.628v.038a.629.629,0,0,0,1.257,0v-.314A87.158,87.158,0,0,0,345.745,192.858Zm-6.774,20.408a30.99,30.99,0,0,0,6.623-16.65,85.69,85.69,0,0,1,3.38,23.549A50.9,50.9,0,0,0,338.971,213.266Zm6.774-20.408.1-.214a.63.63,0,1,0-1.156-.5l-.189.427a.736.736,0,0,0-.05.226v.063a29.963,29.963,0,0,1-6.962,20.245.648.648,0,0,0,.088.892,1.377,1.377,0,0,1,.44.2,50.966,50.966,0,0,1,10.958,7.628v.038a.629.629,0,0,0,1.257,0v-.314A87.158,87.158,0,0,0,345.745,192.858Zm-6.774,20.408a30.99,30.99,0,0,0,6.623-16.65,85.69,85.69,0,0,1,3.38,23.549A50.9,50.9,0,0,0,338.971,213.266Zm41.181-9a7.371,7.371,0,0,0-5.479-2.325,7.54,7.54,0,0,0-5.529,2.325,7.426,7.426,0,0,0-2.262,5.466,7.7,7.7,0,0,0,7.791,7.791,7.426,7.426,0,0,0,5.466-2.262,7.54,7.54,0,0,0,2.325-5.529A7.357,7.357,0,0,0,380.152,204.269Zm-.892,10.116a6.224,6.224,0,0,1-4.587,1.885,6.459,6.459,0,0,1-6.535-6.535,6.222,6.222,0,0,1,1.885-4.587,6.335,6.335,0,0,1,4.65-1.948,6.678,6.678,0,0,1,6.535,6.535A6.335,6.335,0,0,1,379.26,214.385Zm.892-10.116a7.371,7.371,0,0,0-5.479-2.325,7.54,7.54,0,0,0-5.529,2.325,7.426,7.426,0,0,0-2.262,5.466,7.7,7.7,0,0,0,7.791,7.791,7.426,7.426,0,0,0,5.466-2.262,7.54,7.54,0,0,0,2.325-5.529A7.357,7.357,0,0,0,380.152,204.269Zm-.892,10.116a6.224,6.224,0,0,1-4.587,1.885,6.459,6.459,0,0,1-6.535-6.535,6.222,6.222,0,0,1,1.885-4.587,6.335,6.335,0,0,1,4.65-1.948,6.678,6.678,0,0,1,6.535,6.535A6.335,6.335,0,0,1,379.26,214.385Zm-33.515-21.527.1-.214a.63.63,0,1,0-1.156-.5l-.189.427a.736.736,0,0,0-.05.226v.063a29.963,29.963,0,0,1-6.962,20.245.648.648,0,0,0,.088.892,1.377,1.377,0,0,1,.44.2,50.966,50.966,0,0,1,10.958,7.628v.038a.629.629,0,0,0,1.257,0v-.314A87.158,87.158,0,0,0,345.745,192.858Zm-6.774,20.408a30.99,30.99,0,0,0,6.623-16.65,85.69,85.69,0,0,1,3.38,23.549A50.9,50.9,0,0,0,338.971,213.266Zm6.774-20.408.1-.214a.63.63,0,1,0-1.156-.5l-.189.427a.736.736,0,0,0-.05.226v.063a29.963,29.963,0,0,1-6.962,20.245.648.648,0,0,0,.088.892,1.377,1.377,0,0,1,.44.2,50.966,50.966,0,0,1,10.958,7.628v.038a.629.629,0,0,0,1.257,0v-.314A87.158,87.158,0,0,0,345.745,192.858Zm-6.774,20.408a30.99,30.99,0,0,0,6.623-16.65,85.69,85.69,0,0,1,3.38,23.549A50.9,50.9,0,0,0,338.971,213.266Zm41.181-9a7.371,7.371,0,0,0-5.479-2.325,7.54,7.54,0,0,0-5.529,2.325,7.426,7.426,0,0,0-2.262,5.466,7.7,7.7,0,0,0,7.791,7.791,7.426,7.426,0,0,0,5.466-2.262,7.54,7.54,0,0,0,2.325-5.529A7.357,7.357,0,0,0,380.152,204.269Zm-.892,10.116a6.224,6.224,0,0,1-4.587,1.885,6.459,6.459,0,0,1-6.535-6.535,6.222,6.222,0,0,1,1.885-4.587,6.335,6.335,0,0,1,4.65-1.948,6.678,6.678,0,0,1,6.535,6.535A6.335,6.335,0,0,1,379.26,214.385Zm.892-10.116a7.371,7.371,0,0,0-5.479-2.325,7.54,7.54,0,0,0-5.529,2.325,7.426,7.426,0,0,0-2.262,5.466,7.7,7.7,0,0,0,7.791,7.791,7.426,7.426,0,0,0,5.466-2.262,7.54,7.54,0,0,0,2.325-5.529A7.357,7.357,0,0,0,380.152,204.269Zm-.892,10.116a6.224,6.224,0,0,1-4.587,1.885,6.459,6.459,0,0,1-6.535-6.535,6.222,6.222,0,0,1,1.885-4.587,6.335,6.335,0,0,1,4.65-1.948,6.678,6.678,0,0,1,6.535,6.535A6.335,6.335,0,0,1,379.26,214.385Zm-33.515-21.527.1-.214a.63.63,0,1,0-1.156-.5l-.189.427a.736.736,0,0,0-.05.226v.063a29.963,29.963,0,0,1-6.962,20.245.648.648,0,0,0,.088.892,1.377,1.377,0,0,1,.44.2,50.966,50.966,0,0,1,10.958,7.628v.038a.629.629,0,0,0,1.257,0v-.314A87.158,87.158,0,0,0,345.745,192.858Zm-6.774,20.408a30.99,30.99,0,0,0,6.623-16.65,85.69,85.69,0,0,1,3.38,23.549A50.9,50.9,0,0,0,338.971,213.266Zm6.774-20.408.1-.214a.63.63,0,1,0-1.156-.5l-.189.427a.736.736,0,0,0-.05.226v.063a29.963,29.963,0,0,1-6.962,20.245.648.648,0,0,0,.088.892,1.377,1.377,0,0,1,.44.2,50.966,50.966,0,0,1,10.958,7.628v.038a.629.629,0,0,0,1.257,0v-.314A87.158,87.158,0,0,0,345.745,192.858Zm-6.774,20.408a30.99,30.99,0,0,0,6.623-16.65,85.69,85.69,0,0,1,3.38,23.549A50.9,50.9,0,0,0,338.971,213.266Zm41.181-9a7.371,7.371,0,0,0-5.479-2.325,7.54,7.54,0,0,0-5.529,2.325,7.426,7.426,0,0,0-2.262,5.466,7.7,7.7,0,0,0,7.791,7.791,7.426,7.426,0,0,0,5.466-2.262,7.54,7.54,0,0,0,2.325-5.529A7.357,7.357,0,0,0,380.152,204.269Zm-.892,10.116a6.224,6.224,0,0,1-4.587,1.885,6.459,6.459,0,0,1-6.535-6.535,6.222,6.222,0,0,1,1.885-4.587,6.335,6.335,0,0,1,4.65-1.948,6.678,6.678,0,0,1,6.535,6.535A6.335,6.335,0,0,1,379.26,214.385Zm.892-10.116a7.371,7.371,0,0,0-5.479-2.325,7.54,7.54,0,0,0-5.529,2.325,7.426,7.426,0,0,0-2.262,5.466,7.7,7.7,0,0,0,7.791,7.791,7.426,7.426,0,0,0,5.466-2.262,7.54,7.54,0,0,0,2.325-5.529A7.357,7.357,0,0,0,380.152,204.269Zm-.892,10.116a6.224,6.224,0,0,1-4.587,1.885,6.459,6.459,0,0,1-6.535-6.535,6.222,6.222,0,0,1,1.885-4.587,6.335,6.335,0,0,1,4.65-1.948,6.678,6.678,0,0,1,6.535,6.535A6.335,6.335,0,0,1,379.26,214.385Zm-33.415-21.741a.63.63,0,1,0-1.156-.5l-.189.427a.736.736,0,0,0-.05.226v.063a29.963,29.963,0,0,1-6.962,20.245.648.648,0,0,0,.088.892,1.377,1.377,0,0,1,.44.2,50.966,50.966,0,0,1,10.958,7.628v.038a.629.629,0,0,0,1.257,0v-.314a87.158,87.158,0,0,0-4.486-28.69Zm3.129,27.521a50.9,50.9,0,0,0-10-6.9,30.99,30.99,0,0,0,6.623-16.65A85.69,85.69,0,0,1,348.974,220.165Zm83.782,192.747-14.892-9.551a.627.627,0,0,0-.339-.1H397.808a.638.638,0,0,0-.276-.3c-9.111-5.1-11.26-13.685-6.56-26.239a.7.7,0,0,0,.037-.214.568.568,0,0,0,.139-.213c7.389-18.436,9.01-35.426,4.8-50.493-.8-2.84.779-11.272,4.738-25.146a208.821,208.821,0,0,0-2.953-62.016,2.045,2.045,0,0,0-.063-.49l-.226-4.423a55.6,55.6,0,0,0,24.052-8.9c2.677-.755,5.517-2.929,4.2-8.835a50.376,50.376,0,0,0-7.15-25.208c.98-15.822-2.941-24.292-11.637-25.159a.864.864,0,0,0-.176.013.618.618,0,0,0-.414-.2c-5.09-.277-8.986-1.785-11.587-4.461a.7.7,0,0,0-.477-.189.576.576,0,0,0-.3-.264.614.614,0,0,0-.817.34l-15.922,38.441h-5.366a.7.7,0,0,0-.05-.176L355.647,160.3a.6.6,0,0,0-.465-.377.633.633,0,0,0-.565.176c-3.657,3.745-8.709,5.5-15.156,5.215-8.444,1.194-11.636,10.242-9.462,26.93v.013c-7.239,15.507-9.212,25.761-6.007,31.366a.542.542,0,0,0,.276.251,145.4,145.4,0,0,0,25.435,9.237,105.1,105.1,0,0,1-2.84,34.219.556.556,0,0,0-.025.2l.063.691c-2.539,19.817-.528,37.222,5.994,51.724a54.453,54.453,0,0,1-1.118,22.318.62.62,0,0,0-.227.478,96.734,96.734,0,0,0,2.086,22.519,55.972,55.972,0,0,0,4.989,13.823c2.463,7.138,2.69,12.831.666,16.928-1.533,3.129-4.436,5.428-8.633,6.848a.613.613,0,0,0-.4.4H313.712a.63.63,0,0,0-.615-.5.622.622,0,0,0-.629.628v10.242a.644.644,0,0,0,.629.628l119.319-.188a.635.635,0,0,0,.6-.453A.627.627,0,0,0,432.756,412.912Zm-72.334-16.349c2.174-4.411,1.961-10.431-.653-17.971a55.384,55.384,0,0,1-4.9-13.609,93.236,93.236,0,0,1-2.061-21.69c.013-.038.025-.088.038-.126a55.8,55.8,0,0,0,1.269-23.512.6.6,0,0,0-.038-.163c-6.459-14.314-8.457-31.53-5.919-51.184v-.126l-.05-.653a106.251,106.251,0,0,0,2.815-34.986.615.615,0,0,0-.477-.54,145.617,145.617,0,0,1-25.46-9.174c-2.8-5.2-.729-15.306,6.145-30.046a.657.657,0,0,0,.063-.3.674.674,0,0,0,.062-.352c-2.073-15.9.742-24.492,8.269-25.56,6.321.289,11.461-1.383,15.319-4.939l15.8,37.976c0,.013.013.025.013.038a.742.742,0,0,0-.063.289.622.622,0,0,0,.628.628h6.409a.614.614,0,0,0,.578-.389l15.8-38.14c2.828,2.8,6.937,4.361,12.24,4.662a.642.642,0,0,0,.151-.012.653.653,0,0,0,.39.2c7.942.792,11.473,8.872,10.493,24.027a.539.539,0,0,0,.1.365,49.349,49.349,0,0,1,7.075,24.882c.93,4.172-.176,6.622-3.38,7.489a.6.6,0,0,0-.189.076,54.441,54.441,0,0,1-23.474,8.746q-.038-4.165.138-8.093v-.088A25.151,25.151,0,0,1,410.827,213.4a.706.706,0,0,0,.188-.113c.013,0,.013,0,.013-.012l.5-.427a.633.633,0,1,0-.83-.956l-.012.013c-3.808-4.788-5.781-11.1-5.856-18.774a.628.628,0,0,0-1.194-.264c-4.248,8.872-6.723,19.377-7.352,31.215v.264c-.125,2.827-.163,5.793-.125,8.822v.037l.251,5.077a.4.4,0,0,0,.038.176.851.851,0,0,1,.025.239.449.449,0,0,0,.012.126,207.4,207.4,0,0,1,2.966,61.589c-4.046,14.2-5.592,22.607-4.712,25.723,4.134,14.791,2.526,31.5-4.75,49.676a.489.489,0,0,0-.051.226.656.656,0,0,0-.15.239c-4.65,12.416-2.69,21.489,5.805,26.981H377.877c-2.815-2-2.525-6.234.867-12.58a.6.6,0,0,0,.076-.352.552.552,0,0,0,.151-.251,58.206,58.206,0,0,0,2.551-24.957c-.013-.05-.013-.088-.025-.126a.639.639,0,0,0-.013-.4c-4.109-11.385-3.519-22.934,1.734-34.332a.557.557,0,0,0,.063-.276,238.249,238.249,0,0,0-7.691-54.816.609.609,0,0,0-.6-.465h-.013a.628.628,0,0,0-.6.49,254,254,0,0,0-6.484,48.218l.05.34c-1.96,4.662-1.772,10.141.528,16.185,2.275,10.167,1.8,19.5-1.445,27.81a40.32,40.32,0,0,0,2.526,25.134l.05.3a.458.458,0,0,0,.088.226c2.375,3.808,2.953,6.962,1.734,9.375a.643.643,0,0,0-.05.478h-18.3A14.308,14.308,0,0,0,360.422,396.563ZM397.7,221.736a81.5,81.5,0,0,1,5.982-25.912c.465,6.685,2.45,12.3,5.906,16.713A26.511,26.511,0,0,0,397.7,221.736Zm-26.88,171.119-.05-.251a.656.656,0,0,0-.038-.151,39,39,0,0,1-2.5-24.341c3.293-8.458,3.783-18.033,1.445-28.539-2.236-5.881-2.412-11.1-.515-15.482a.708.708,0,0,0,.05-.327l-.062-.4a251.614,251.614,0,0,1,5.881-45.353,238.226,238.226,0,0,1,7,51.863c-5.353,11.649-5.931,23.461-1.734,35.123a.824.824,0,0,0-.025.252,56.956,56.956,0,0,1-2.476,24.429.451.451,0,0,1-.15.4c-3.268,6.133-3.808,10.556-1.609,13.183h-3.456C373.944,400.458,373.353,396.965,370.815,392.855ZM313.725,413v-8.483H417.336l12.944,8.294Zm60.948-195.474a7.426,7.426,0,0,0,5.466-2.262,7.54,7.54,0,0,0,2.325-5.529,7.919,7.919,0,0,0-7.791-7.791,7.54,7.54,0,0,0-5.529,2.325,7.426,7.426,0,0,0-2.262,5.466,7.7,7.7,0,0,0,7.791,7.791Zm-4.65-12.378a6.335,6.335,0,0,1,4.65-1.948,6.678,6.678,0,0,1,6.535,6.535,6.335,6.335,0,0,1-1.948,4.65,6.224,6.224,0,0,1-4.587,1.885,6.459,6.459,0,0,1-6.535-6.535A6.222,6.222,0,0,1,370.023,205.148Zm-24.178-12.5a.63.63,0,1,0-1.156-.5l-.189.427a.736.736,0,0,0-.05.226v.063a29.963,29.963,0,0,1-6.962,20.245.648.648,0,0,0,.088.892,1.377,1.377,0,0,1,.44.2,50.966,50.966,0,0,1,10.958,7.628v.038a.629.629,0,0,0,1.257,0v-.314a87.158,87.158,0,0,0-4.486-28.69Zm3.129,27.521a50.9,50.9,0,0,0-10-6.9,30.99,30.99,0,0,0,6.623-16.65A85.69,85.69,0,0,1,348.974,220.165Zm-3.229-27.307.1-.214a.63.63,0,1,0-1.156-.5l-.189.427a.736.736,0,0,0-.05.226v.063a29.963,29.963,0,0,1-6.962,20.245.648.648,0,0,0,.088.892,1.377,1.377,0,0,1,.44.2,50.966,50.966,0,0,1,10.958,7.628v.038a.629.629,0,0,0,1.257,0v-.314A87.158,87.158,0,0,0,345.745,192.858Zm-6.774,20.408a30.99,30.99,0,0,0,6.623-16.65,85.69,85.69,0,0,1,3.38,23.549A50.9,50.9,0,0,0,338.971,213.266Zm41.181-9a7.371,7.371,0,0,0-5.479-2.325,7.54,7.54,0,0,0-5.529,2.325,7.426,7.426,0,0,0-2.262,5.466,7.7,7.7,0,0,0,7.791,7.791,7.426,7.426,0,0,0,5.466-2.262,7.54,7.54,0,0,0,2.325-5.529A7.357,7.357,0,0,0,380.152,204.269Zm-.892,10.116a6.224,6.224,0,0,1-4.587,1.885,6.459,6.459,0,0,1-6.535-6.535,6.222,6.222,0,0,1,1.885-4.587,6.335,6.335,0,0,1,4.65-1.948,6.678,6.678,0,0,1,6.535,6.535A6.335,6.335,0,0,1,379.26,214.385Zm.892-10.116a7.371,7.371,0,0,0-5.479-2.325,7.54,7.54,0,0,0-5.529,2.325,7.426,7.426,0,0,0-2.262,5.466,7.7,7.7,0,0,0,7.791,7.791,7.426,7.426,0,0,0,5.466-2.262,7.54,7.54,0,0,0,2.325-5.529A7.357,7.357,0,0,0,380.152,204.269Zm-.892,10.116a6.224,6.224,0,0,1-4.587,1.885,6.459,6.459,0,0,1-6.535-6.535,6.222,6.222,0,0,1,1.885-4.587,6.335,6.335,0,0,1,4.65-1.948,6.678,6.678,0,0,1,6.535,6.535A6.335,6.335,0,0,1,379.26,214.385Zm-33.515-21.527.1-.214a.63.63,0,1,0-1.156-.5l-.189.427a.736.736,0,0,0-.05.226v.063a29.963,29.963,0,0,1-6.962,20.245.648.648,0,0,0,.088.892,1.377,1.377,0,0,1,.44.2,50.966,50.966,0,0,1,10.958,7.628v.038a.629.629,0,0,0,1.257,0v-.314A87.158,87.158,0,0,0,345.745,192.858Zm-6.774,20.408a30.99,30.99,0,0,0,6.623-16.65,85.69,85.69,0,0,1,3.38,23.549A50.9,50.9,0,0,0,338.971,213.266Zm6.774-20.408.1-.214a.63.63,0,1,0-1.156-.5l-.189.427a.736.736,0,0,0-.05.226v.063a29.963,29.963,0,0,1-6.962,20.245.648.648,0,0,0,.088.892,1.377,1.377,0,0,1,.44.2,50.966,50.966,0,0,1,10.958,7.628v.038a.629.629,0,0,0,1.257,0v-.314A87.158,87.158,0,0,0,345.745,192.858Zm-6.774,20.408a30.99,30.99,0,0,0,6.623-16.65,85.69,85.69,0,0,1,3.38,23.549A50.9,50.9,0,0,0,338.971,213.266Zm41.181-9a7.371,7.371,0,0,0-5.479-2.325,7.54,7.54,0,0,0-5.529,2.325,7.426,7.426,0,0,0-2.262,5.466,7.7,7.7,0,0,0,7.791,7.791,7.426,7.426,0,0,0,5.466-2.262,7.54,7.54,0,0,0,2.325-5.529A7.357,7.357,0,0,0,380.152,204.269Zm-.892,10.116a6.224,6.224,0,0,1-4.587,1.885,6.459,6.459,0,0,1-6.535-6.535,6.222,6.222,0,0,1,1.885-4.587,6.335,6.335,0,0,1,4.65-1.948,6.678,6.678,0,0,1,6.535,6.535A6.335,6.335,0,0,1,379.26,214.385Zm.892-10.116a7.371,7.371,0,0,0-5.479-2.325,7.54,7.54,0,0,0-5.529,2.325,7.426,7.426,0,0,0-2.262,5.466,7.7,7.7,0,0,0,7.791,7.791,7.426,7.426,0,0,0,5.466-2.262,7.54,7.54,0,0,0,2.325-5.529A7.357,7.357,0,0,0,380.152,204.269Zm-.892,10.116a6.224,6.224,0,0,1-4.587,1.885,6.459,6.459,0,0,1-6.535-6.535,6.222,6.222,0,0,1,1.885-4.587,6.335,6.335,0,0,1,4.65-1.948,6.678,6.678,0,0,1,6.535,6.535A6.335,6.335,0,0,1,379.26,214.385Zm-33.515-21.527.1-.214a.63.63,0,1,0-1.156-.5l-.189.427a.736.736,0,0,0-.05.226v.063a29.963,29.963,0,0,1-6.962,20.245.648.648,0,0,0,.088.892,1.377,1.377,0,0,1,.44.2,50.966,50.966,0,0,1,10.958,7.628v.038a.629.629,0,0,0,1.257,0v-.314A87.158,87.158,0,0,0,345.745,192.858Zm-6.774,20.408a30.99,30.99,0,0,0,6.623-16.65,85.69,85.69,0,0,1,3.38,23.549A50.9,50.9,0,0,0,338.971,213.266Zm6.774-20.408.1-.214a.63.63,0,1,0-1.156-.5l-.189.427a.736.736,0,0,0-.05.226v.063a29.963,29.963,0,0,1-6.962,20.245.648.648,0,0,0,.088.892,1.377,1.377,0,0,1,.44.2,50.966,50.966,0,0,1,10.958,7.628v.038a.629.629,0,0,0,1.257,0v-.314A87.158,87.158,0,0,0,345.745,192.858Zm-6.774,20.408a30.99,30.99,0,0,0,6.623-16.65,85.69,85.69,0,0,1,3.38,23.549A50.9,50.9,0,0,0,338.971,213.266Zm41.181-9a7.371,7.371,0,0,0-5.479-2.325,7.54,7.54,0,0,0-5.529,2.325,7.426,7.426,0,0,0-2.262,5.466,7.7,7.7,0,0,0,7.791,7.791,7.426,7.426,0,0,0,5.466-2.262,7.54,7.54,0,0,0,2.325-5.529A7.357,7.357,0,0,0,380.152,204.269Zm-.892,10.116a6.224,6.224,0,0,1-4.587,1.885,6.459,6.459,0,0,1-6.535-6.535,6.222,6.222,0,0,1,1.885-4.587,6.335,6.335,0,0,1,4.65-1.948,6.678,6.678,0,0,1,6.535,6.535A6.335,6.335,0,0,1,379.26,214.385Zm.892-10.116a7.371,7.371,0,0,0-5.479-2.325,7.54,7.54,0,0,0-5.529,2.325,7.426,7.426,0,0,0-2.262,5.466,7.7,7.7,0,0,0,7.791,7.791,7.426,7.426,0,0,0,5.466-2.262,7.54,7.54,0,0,0,2.325-5.529A7.357,7.357,0,0,0,380.152,204.269Zm-.892,10.116a6.224,6.224,0,0,1-4.587,1.885,6.459,6.459,0,0,1-6.535-6.535,6.222,6.222,0,0,1,1.885-4.587,6.335,6.335,0,0,1,4.65-1.948,6.678,6.678,0,0,1,6.535,6.535A6.335,6.335,0,0,1,379.26,214.385Zm-33.515-21.527.1-.214a.63.63,0,1,0-1.156-.5l-.189.427a.736.736,0,0,0-.05.226v.063a29.963,29.963,0,0,1-6.962,20.245.648.648,0,0,0,.088.892,1.377,1.377,0,0,1,.44.2,50.966,50.966,0,0,1,10.958,7.628v.038a.629.629,0,0,0,1.257,0v-.314A87.158,87.158,0,0,0,345.745,192.858Zm-6.774,20.408a30.99,30.99,0,0,0,6.623-16.65,85.69,85.69,0,0,1,3.38,23.549A50.9,50.9,0,0,0,338.971,213.266Zm6.774-20.408.1-.214a.63.63,0,1,0-1.156-.5l-.189.427a.736.736,0,0,0-.05.226v.063a29.963,29.963,0,0,1-6.962,20.245.648.648,0,0,0,.088.892,1.377,1.377,0,0,1,.44.2,50.966,50.966,0,0,1,10.958,7.628v.038a.629.629,0,0,0,1.257,0v-.314A87.158,87.158,0,0,0,345.745,192.858Zm-6.774,20.408a30.99,30.99,0,0,0,6.623-16.65,85.69,85.69,0,0,1,3.38,23.549A50.9,50.9,0,0,0,338.971,213.266Zm41.181-9a7.371,7.371,0,0,0-5.479-2.325,7.54,7.54,0,0,0-5.529,2.325,7.426,7.426,0,0,0-2.262,5.466,7.7,7.7,0,0,0,7.791,7.791,7.426,7.426,0,0,0,5.466-2.262,7.54,7.54,0,0,0,2.325-5.529A7.357,7.357,0,0,0,380.152,204.269Zm-.892,10.116a6.224,6.224,0,0,1-4.587,1.885,6.459,6.459,0,0,1-6.535-6.535,6.222,6.222,0,0,1,1.885-4.587,6.335,6.335,0,0,1,4.65-1.948,6.678,6.678,0,0,1,6.535,6.535A6.335,6.335,0,0,1,379.26,214.385Zm.892-10.116a7.371,7.371,0,0,0-5.479-2.325,7.54,7.54,0,0,0-5.529,2.325,7.426,7.426,0,0,0-2.262,5.466,7.7,7.7,0,0,0,7.791,7.791,7.426,7.426,0,0,0,5.466-2.262,7.54,7.54,0,0,0,2.325-5.529A7.357,7.357,0,0,0,380.152,204.269Zm-.892,10.116a6.224,6.224,0,0,1-4.587,1.885,6.459,6.459,0,0,1-6.535-6.535,6.222,6.222,0,0,1,1.885-4.587,6.335,6.335,0,0,1,4.65-1.948,6.678,6.678,0,0,1,6.535,6.535A6.335,6.335,0,0,1,379.26,214.385Zm-33.515-21.527.1-.214a.63.63,0,1,0-1.156-.5l-.189.427a.736.736,0,0,0-.05.226v.063a29.963,29.963,0,0,1-6.962,20.245.648.648,0,0,0,.088.892,1.377,1.377,0,0,1,.44.2,50.966,50.966,0,0,1,10.958,7.628v.038a.629.629,0,0,0,1.257,0v-.314A87.158,87.158,0,0,0,345.745,192.858Zm-6.774,20.408a30.99,30.99,0,0,0,6.623-16.65,85.69,85.69,0,0,1,3.38,23.549A50.9,50.9,0,0,0,338.971,213.266Zm6.774-20.408.1-.214a.63.63,0,1,0-1.156-.5l-.189.427a.736.736,0,0,0-.05.226v.063a29.963,29.963,0,0,1-6.962,20.245.648.648,0,0,0,.088.892,1.377,1.377,0,0,1,.44.2,50.966,50.966,0,0,1,10.958,7.628v.038a.629.629,0,0,0,1.257,0v-.314A87.158,87.158,0,0,0,345.745,192.858Zm-6.774,20.408a30.99,30.99,0,0,0,6.623-16.65,85.69,85.69,0,0,1,3.38,23.549A50.9,50.9,0,0,0,338.971,213.266Zm41.181-9a7.371,7.371,0,0,0-5.479-2.325,7.54,7.54,0,0,0-5.529,2.325,7.426,7.426,0,0,0-2.262,5.466,7.7,7.7,0,0,0,7.791,7.791,7.426,7.426,0,0,0,5.466-2.262,7.54,7.54,0,0,0,2.325-5.529A7.357,7.357,0,0,0,380.152,204.269Zm-.892,10.116a6.224,6.224,0,0,1-4.587,1.885,6.459,6.459,0,0,1-6.535-6.535,6.222,6.222,0,0,1,1.885-4.587,6.335,6.335,0,0,1,4.65-1.948,6.678,6.678,0,0,1,6.535,6.535A6.335,6.335,0,0,1,379.26,214.385Zm-284.885-32.8a7.54,7.54,0,0,0-5.529-2.325,7.918,7.918,0,0,0-7.791,7.791,7.543,7.543,0,0,0,2.324,5.53,7.428,7.428,0,0,0,5.467,2.262,7.7,7.7,0,0,0,7.791-7.792A7.426,7.426,0,0,0,94.375,181.586Zm-.88,10.1a6.364,6.364,0,0,1-4.649,1.9,6.222,6.222,0,0,1-4.587-1.885,6.335,6.335,0,0,1-1.948-4.65,6.678,6.678,0,0,1,6.535-6.534,6.333,6.333,0,0,1,4.649,1.948,6.216,6.216,0,0,1,1.885,4.586A6.33,6.33,0,0,1,93.5,191.689Zm32.535-1.269a30.2,30.2,0,0,1-7-20.245.477.477,0,0,0-.025-.226v-.012l-.164-.44a.619.619,0,0,0-.8-.377.629.629,0,0,0-.377.8l.088.239a86.942,86.942,0,0,0-4.474,27.483c0,.415.013.817.013,1.231v.315a.627.627,0,0,0,.628.615h.013a.638.638,0,0,0,.615-.641v-.025a51.463,51.463,0,0,1,10.959-7.628.728.728,0,0,0,.1-.062.669.669,0,0,0,.339-.139A.647.647,0,0,0,126.03,190.42Zm-11.5,7.063a86.523,86.523,0,0,1,3.368-23.575,31.222,31.222,0,0,0,6.647,16.676A52.376,52.376,0,0,0,114.532,197.483Zm11.5-7.063a30.2,30.2,0,0,1-7-20.245.477.477,0,0,0-.025-.226v-.012l-.164-.44a.619.619,0,0,0-.8-.377.629.629,0,0,0-.377.8l.088.239a86.942,86.942,0,0,0-4.474,27.483c0,.415.013.817.013,1.231v.315a.627.627,0,0,0,.628.615h.013a.638.638,0,0,0,.615-.641v-.025a51.463,51.463,0,0,1,10.959-7.628.728.728,0,0,0,.1-.062.669.669,0,0,0,.339-.139A.647.647,0,0,0,126.03,190.42Zm-11.5,7.063a86.523,86.523,0,0,1,3.368-23.575,31.222,31.222,0,0,0,6.647,16.676A52.376,52.376,0,0,0,114.532,197.483Zm-20.157-15.9a7.54,7.54,0,0,0-5.529-2.325,7.918,7.918,0,0,0-7.791,7.791,7.543,7.543,0,0,0,2.324,5.53,7.428,7.428,0,0,0,5.467,2.262,7.7,7.7,0,0,0,7.791-7.792A7.426,7.426,0,0,0,94.375,181.586Zm-.88,10.1a6.364,6.364,0,0,1-4.649,1.9,6.222,6.222,0,0,1-4.587-1.885,6.335,6.335,0,0,1-1.948-4.65,6.678,6.678,0,0,1,6.535-6.534,6.333,6.333,0,0,1,4.649,1.948,6.216,6.216,0,0,1,1.885,4.586A6.33,6.33,0,0,1,93.5,191.689Zm.88-10.1a7.54,7.54,0,0,0-5.529-2.325,7.918,7.918,0,0,0-7.791,7.791,7.543,7.543,0,0,0,2.324,5.53,7.428,7.428,0,0,0,5.467,2.262,7.7,7.7,0,0,0,7.791-7.792A7.426,7.426,0,0,0,94.375,181.586Zm-.88,10.1a6.364,6.364,0,0,1-4.649,1.9,6.222,6.222,0,0,1-4.587-1.885,6.335,6.335,0,0,1-1.948-4.65,6.678,6.678,0,0,1,6.535-6.534,6.333,6.333,0,0,1,4.649,1.948,6.216,6.216,0,0,1,1.885,4.586A6.33,6.33,0,0,1,93.5,191.689Zm32.535-1.269a30.2,30.2,0,0,1-7-20.245.477.477,0,0,0-.025-.226v-.012l-.164-.44a.619.619,0,0,0-.8-.377.629.629,0,0,0-.377.8l.088.239a86.942,86.942,0,0,0-4.474,27.483c0,.415.013.817.013,1.231v.315a.627.627,0,0,0,.628.615h.013a.638.638,0,0,0,.615-.641v-.025a51.463,51.463,0,0,1,10.959-7.628.728.728,0,0,0,.1-.062.669.669,0,0,0,.339-.139A.647.647,0,0,0,126.03,190.42Zm-11.5,7.063a86.523,86.523,0,0,1,3.368-23.575,31.222,31.222,0,0,0,6.647,16.676A52.376,52.376,0,0,0,114.532,197.483Zm11.5-7.063a30.2,30.2,0,0,1-7-20.245.477.477,0,0,0-.025-.226v-.012l-.164-.44a.619.619,0,0,0-.8-.377.629.629,0,0,0-.377.8l.088.239a86.942,86.942,0,0,0-4.474,27.483c0,.415.013.817.013,1.231v.315a.627.627,0,0,0,.628.615h.013a.638.638,0,0,0,.615-.641v-.025a51.463,51.463,0,0,1,10.959-7.628.728.728,0,0,0,.1-.062.669.669,0,0,0,.339-.139A.647.647,0,0,0,126.03,190.42Zm-11.5,7.063a86.523,86.523,0,0,1,3.368-23.575,31.222,31.222,0,0,0,6.647,16.676A52.376,52.376,0,0,0,114.532,197.483Zm-20.157-15.9a7.54,7.54,0,0,0-5.529-2.325,7.918,7.918,0,0,0-7.791,7.791,7.543,7.543,0,0,0,2.324,5.53,7.428,7.428,0,0,0,5.467,2.262,7.7,7.7,0,0,0,7.791-7.792A7.426,7.426,0,0,0,94.375,181.586Zm-.88,10.1a6.364,6.364,0,0,1-4.649,1.9,6.222,6.222,0,0,1-4.587-1.885,6.335,6.335,0,0,1-1.948-4.65,6.678,6.678,0,0,1,6.535-6.534,6.333,6.333,0,0,1,4.649,1.948,6.216,6.216,0,0,1,1.885,4.586A6.33,6.33,0,0,1,93.5,191.689Zm.88-10.1a7.54,7.54,0,0,0-5.529-2.325,7.918,7.918,0,0,0-7.791,7.791,7.543,7.543,0,0,0,2.324,5.53,7.428,7.428,0,0,0,5.467,2.262,7.7,7.7,0,0,0,7.791-7.792A7.426,7.426,0,0,0,94.375,181.586Zm-.88,10.1a6.364,6.364,0,0,1-4.649,1.9,6.222,6.222,0,0,1-4.587-1.885,6.335,6.335,0,0,1-1.948-4.65,6.678,6.678,0,0,1,6.535-6.534,6.333,6.333,0,0,1,4.649,1.948,6.216,6.216,0,0,1,1.885,4.586A6.33,6.33,0,0,1,93.5,191.689Zm32.535-1.269a30.2,30.2,0,0,1-7-20.245.477.477,0,0,0-.025-.226v-.012l-.164-.44a.619.619,0,0,0-.8-.377.629.629,0,0,0-.377.8l.088.239a86.942,86.942,0,0,0-4.474,27.483c0,.415.013.817.013,1.231v.315a.627.627,0,0,0,.628.615h.013a.638.638,0,0,0,.615-.641v-.025a51.463,51.463,0,0,1,10.959-7.628.728.728,0,0,0,.1-.062.669.669,0,0,0,.339-.139A.647.647,0,0,0,126.03,190.42Zm-11.5,7.063a86.523,86.523,0,0,1,3.368-23.575,31.222,31.222,0,0,0,6.647,16.676A52.376,52.376,0,0,0,114.532,197.483Zm11.5-7.063a30.2,30.2,0,0,1-7-20.245.477.477,0,0,0-.025-.226v-.012l-.164-.44a.619.619,0,0,0-.8-.377.629.629,0,0,0-.377.8l.088.239a86.942,86.942,0,0,0-4.474,27.483c0,.415.013.817.013,1.231v.315a.627.627,0,0,0,.628.615h.013a.638.638,0,0,0,.615-.641v-.025a51.463,51.463,0,0,1,10.959-7.628.728.728,0,0,0,.1-.062.669.669,0,0,0,.339-.139A.647.647,0,0,0,126.03,190.42Zm-11.5,7.063a86.523,86.523,0,0,1,3.368-23.575,31.222,31.222,0,0,0,6.647,16.676A52.376,52.376,0,0,0,114.532,197.483Zm-20.157-15.9a7.54,7.54,0,0,0-5.529-2.325,7.918,7.918,0,0,0-7.791,7.791,7.543,7.543,0,0,0,2.324,5.53,7.428,7.428,0,0,0,5.467,2.262,7.7,7.7,0,0,0,7.791-7.792A7.426,7.426,0,0,0,94.375,181.586Zm-.88,10.1a6.364,6.364,0,0,1-4.649,1.9,6.222,6.222,0,0,1-4.587-1.885,6.335,6.335,0,0,1-1.948-4.65,6.678,6.678,0,0,1,6.535-6.534,6.333,6.333,0,0,1,4.649,1.948,6.216,6.216,0,0,1,1.885,4.586A6.33,6.33,0,0,1,93.5,191.689Zm.88-10.1a7.54,7.54,0,0,0-5.529-2.325,7.918,7.918,0,0,0-7.791,7.791,7.543,7.543,0,0,0,2.324,5.53,7.428,7.428,0,0,0,5.467,2.262,7.7,7.7,0,0,0,7.791-7.792A7.426,7.426,0,0,0,94.375,181.586Zm-.88,10.1a6.364,6.364,0,0,1-4.649,1.9,6.222,6.222,0,0,1-4.587-1.885,6.335,6.335,0,0,1-1.948-4.65,6.678,6.678,0,0,1,6.535-6.534,6.333,6.333,0,0,1,4.649,1.948,6.216,6.216,0,0,1,1.885,4.586A6.33,6.33,0,0,1,93.5,191.689Zm32.535-1.269a30.2,30.2,0,0,1-7-20.245.477.477,0,0,0-.025-.226v-.012l-.164-.44a.619.619,0,0,0-.8-.377.629.629,0,0,0-.377.8l.088.239a86.942,86.942,0,0,0-4.474,27.483c0,.415.013.817.013,1.231v.315a.627.627,0,0,0,.628.615h.013a.638.638,0,0,0,.615-.641v-.025a51.463,51.463,0,0,1,10.959-7.628.728.728,0,0,0,.1-.062.669.669,0,0,0,.339-.139A.647.647,0,0,0,126.03,190.42Zm-11.5,7.063a86.523,86.523,0,0,1,3.368-23.575,31.222,31.222,0,0,0,6.647,16.676A52.376,52.376,0,0,0,114.532,197.483Zm11.5-7.063a30.2,30.2,0,0,1-7-20.245.477.477,0,0,0-.025-.226v-.012l-.164-.44a.619.619,0,0,0-.8-.377.629.629,0,0,0-.377.8l.088.239a86.942,86.942,0,0,0-4.474,27.483c0,.415.013.817.013,1.231v.315a.627.627,0,0,0,.628.615h.013a.638.638,0,0,0,.615-.641v-.025a51.463,51.463,0,0,1,10.959-7.628.728.728,0,0,0,.1-.062.669.669,0,0,0,.339-.139A.647.647,0,0,0,126.03,190.42Zm-11.5,7.063a86.523,86.523,0,0,1,3.368-23.575,31.222,31.222,0,0,0,6.647,16.676A52.376,52.376,0,0,0,114.532,197.483Zm-20.157-15.9a7.54,7.54,0,0,0-5.529-2.325,7.918,7.918,0,0,0-7.791,7.791,7.543,7.543,0,0,0,2.324,5.53,7.428,7.428,0,0,0,5.467,2.262,7.7,7.7,0,0,0,7.791-7.792A7.426,7.426,0,0,0,94.375,181.586Zm-.88,10.1a6.364,6.364,0,0,1-4.649,1.9,6.222,6.222,0,0,1-4.587-1.885,6.335,6.335,0,0,1-1.948-4.65,6.678,6.678,0,0,1,6.535-6.534,6.333,6.333,0,0,1,4.649,1.948,6.216,6.216,0,0,1,1.885,4.586A6.33,6.33,0,0,1,93.5,191.689Zm.88-10.1a7.54,7.54,0,0,0-5.529-2.325,7.918,7.918,0,0,0-7.791,7.791,7.543,7.543,0,0,0,2.324,5.53,7.428,7.428,0,0,0,5.467,2.262,7.7,7.7,0,0,0,7.791-7.792A7.426,7.426,0,0,0,94.375,181.586Zm-.88,10.1a6.364,6.364,0,0,1-4.649,1.9,6.222,6.222,0,0,1-4.587-1.885,6.335,6.335,0,0,1-1.948-4.65,6.678,6.678,0,0,1,6.535-6.534,6.333,6.333,0,0,1,4.649,1.948,6.216,6.216,0,0,1,1.885,4.586A6.33,6.33,0,0,1,93.5,191.689Zm32.535-1.269a30.2,30.2,0,0,1-7-20.245.477.477,0,0,0-.025-.226v-.012l-.164-.44a.619.619,0,0,0-.8-.377.629.629,0,0,0-.377.8l.088.239a86.942,86.942,0,0,0-4.474,27.483c0,.415.013.817.013,1.231v.315a.627.627,0,0,0,.628.615h.013a.638.638,0,0,0,.615-.641v-.025a51.463,51.463,0,0,1,10.959-7.628.728.728,0,0,0,.1-.062.669.669,0,0,0,.339-.139A.647.647,0,0,0,126.03,190.42Zm-11.5,7.063a86.523,86.523,0,0,1,3.368-23.575,31.222,31.222,0,0,0,6.647,16.676A52.376,52.376,0,0,0,114.532,197.483Zm11.5-7.063a30.2,30.2,0,0,1-7-20.245.477.477,0,0,0-.025-.226v-.012l-.164-.44a.619.619,0,0,0-.8-.377.629.629,0,0,0-.377.8l.088.239a86.942,86.942,0,0,0-4.474,27.483c0,.415.013.817.013,1.231v.315a.627.627,0,0,0,.628.615h.013a.638.638,0,0,0,.615-.641v-.025a51.463,51.463,0,0,1,10.959-7.628.728.728,0,0,0,.1-.062.669.669,0,0,0,.339-.139A.647.647,0,0,0,126.03,190.42Zm-11.5,7.063a86.523,86.523,0,0,1,3.368-23.575,31.222,31.222,0,0,0,6.647,16.676A52.376,52.376,0,0,0,114.532,197.483ZM88.846,179.261a7.918,7.918,0,0,0-7.791,7.791,7.543,7.543,0,0,0,2.324,5.53,7.428,7.428,0,0,0,5.467,2.262,7.7,7.7,0,0,0,7.791-7.792,7.426,7.426,0,0,0-2.262-5.466A7.54,7.54,0,0,0,88.846,179.261ZM93.5,191.689a6.364,6.364,0,0,1-4.649,1.9,6.222,6.222,0,0,1-4.587-1.885,6.335,6.335,0,0,1-1.948-4.65,6.678,6.678,0,0,1,6.535-6.534,6.333,6.333,0,0,1,4.649,1.948,6.216,6.216,0,0,1,1.885,4.586A6.33,6.33,0,0,1,93.5,191.689Zm56.927,188.386a.632.632,0,0,0-.616.5H113.263a.612.612,0,0,0-.4-.4c-7.264-2.476-10.506-7.377-9.941-15a36.08,36.08,0,0,1,1.936-8.708c4.926-9.275,7.313-21.527,7.112-36.406a.622.622,0,0,0-.226-.477,54.441,54.441,0,0,1-1.118-22.319c6.509-14.489,8.52-31.894,5.969-51.749l.088-.666a1.319,1.319,0,0,0-.013-.226,105.112,105.112,0,0,1-2.852-34.232,145.883,145.883,0,0,0,25.434-9.2.546.546,0,0,0,.277-.252c3.217-5.629,1.256-15.884-6.007-31.366v-.012c2.174-16.7-1.005-25.762-9.576-26.931-6.333.29-11.4-1.457-15.042-5.215a.64.64,0,0,0-.565-.176.6.6,0,0,0-.465.377L91.724,176.446a.7.7,0,0,0-.051.176H86.307L70.385,138.181a.612.612,0,0,0-.816-.339.567.567,0,0,0-.3.263.671.671,0,0,0-.477.189c-2.6,2.689-6.5,4.2-11.587,4.461a.627.627,0,0,0-.415.2.924.924,0,0,0-.176-.012c-8.721.892-12.629,9.362-11.636,25.158a50.347,50.347,0,0,0-7.163,25.108c-1.294,6.019,1.545,8.181,4.21,8.935a55.989,55.989,0,0,0,24.027,8.9c-.038,1.47-.113,2.966-.189,4.411a3.984,3.984,0,0,1-.1.415,209.21,209.21,0,0,0-2.9,62.217c3.908,13.748,5.492,22.18,4.713,25.045-4.21,15.067-2.589,32.057,4.8,50.48a.569.569,0,0,0,.138.214.7.7,0,0,0,.038.213,33.254,33.254,0,0,1,2.375,11.1c.126,6.761-2.8,11.713-8.935,15.143a.638.638,0,0,0-.276.3H45.994a.642.642,0,0,0-.34.1l-14.891,9.551a.628.628,0,0,0,.339,1.156l119.32.189a.644.644,0,0,0,.628-.629V380.7A.622.622,0,0,0,150.422,380.075ZM76.179,365.108a34.482,34.482,0,0,0-2.451-11.523.705.705,0,0,0-.151-.226.492.492,0,0,0-.05-.227c-7.276-18.158-8.872-34.872-4.75-49.675.867-3.129-.679-11.536-4.687-25.611a208.033,208.033,0,0,1,2.9-61.7,5.166,5.166,0,0,0,.114-.528c.1-1.734.176-3.443.213-5.1l.013-.012c.05-2.815.025-5.593-.088-8.269a.869.869,0,0,0,.163-.138.649.649,0,0,0-.088-.893l-.138-.1c-.641-11.712-3.091-22.13-7.3-30.939a.626.626,0,0,0-.7-.339.617.617,0,0,0-.49.6c-.063,7.7-2.036,14.024-5.869,18.787l-.012-.013a.634.634,0,0,0-.8.98l.49.4a.468.468,0,0,0,.113.062.308.308,0,0,0,.088.051,25.038,25.038,0,0,1,13.257,10.9c.139,2.639.176,5.391.139,8.193a54.6,54.6,0,0,1-23.45-8.746.561.561,0,0,0-.188-.075c-3.192-.868-4.31-3.318-3.406-7.6a49.605,49.605,0,0,1,7.1-24.769.533.533,0,0,0,.1-.364c-.993-15.131,2.538-23.223,10.493-24.028a.621.621,0,0,0,.39-.2.586.586,0,0,0,.15.013c5.291-.277,9.413-1.848,12.24-4.662l15.8,38.139a.625.625,0,0,0,.578.39H92.3a.623.623,0,0,0,.628-.629.742.742,0,0,0-.063-.289c0-.012.013-.025.013-.037l15.8-37.977c3.845,3.569,8.985,5.241,15.2,4.926,7.641,1.056,10.468,9.664,8.382,25.574a.683.683,0,0,0,.063.351.657.657,0,0,0,.063.3c6.886,14.715,8.96,24.819,6.145,30.047a143.857,143.857,0,0,1-25.46,9.136.627.627,0,0,0-.477.553,106.719,106.719,0,0,0,2.815,34.96l-.076.641a.374.374,0,0,0,0,.163c2.539,19.679.553,36.921-5.894,51.222a.54.54,0,0,0-.037.15,55.8,55.8,0,0,0,1.269,23.512c.012.038.025.088.038.126.15,14.426-2.2,26.289-7,35.35a37.619,37.619,0,0,0-2.048,9.111c-.553,7.439,2.4,12.642,8.8,15.507H92.151a.59.59,0,0,0-.05-.478c-1.232-2.413-.654-5.567,1.709-9.374a.634.634,0,0,0,.088-.227l.05-.3a45,45,0,0,0,1.809-4.9,40.1,40.1,0,0,0,.717-20.32c-3.192-8.231-3.67-17.556-1.445-27.634,2.324-6.133,2.513-11.612.552-16.3l.013-.415a252.841,252.841,0,0,0-6.447-48.117.617.617,0,0,0-.6-.49.659.659,0,0,0-.616.465,240.279,240.279,0,0,0-7.716,54.777.567.567,0,0,0,.051.289c5.3,11.4,5.894,22.96,1.772,34.357a.628.628,0,0,0-.013.4c-.012.037-.012.075-.025.125A58.164,58.164,0,0,0,83.882,365.3c.2.7.427,1.407.666,2.1a.561.561,0,0,0,.151.252.594.594,0,0,0,.075.352c3.381,6.333,3.67,10.568.855,12.579H67.922A17.016,17.016,0,0,0,76.179,365.108ZM65.786,199.028a26.374,26.374,0,0,0-11.85-9.2c3.468-4.4,5.454-10,5.906-16.7A81.257,81.257,0,0,1,65.786,199.028Zm25.158,181.55H87.476c2.2-2.639,1.671-7.063-1.6-13.17a.728.728,0,0,0-.113-.163.583.583,0,0,0-.038-.252c-.226-.678-.452-1.357-.653-2.048a57.161,57.161,0,0,1-1.822-22.381.815.815,0,0,0-.025-.251c4.209-11.675,3.619-23.5-1.76-35.162a238.813,238.813,0,0,1,7.025-51.824,251.583,251.583,0,0,1,5.856,45.29l-.038.5a.748.748,0,0,0,.05.289c1.9,4.4,1.722,9.614-.54,15.57-2.3,10.418-1.809,19.994,1.445,28.363a38.993,38.993,0,0,1-.7,19.591,46.912,46.912,0,0,1-1.8,4.839.682.682,0,0,0-.051.15l-.037.252C90.14,374.3,89.562,377.788,90.944,380.578Zm58.85,9.739-116.555-.189,12.943-8.293H149.794Zm-36.506-191.44v.315a.627.627,0,0,0,.628.615h.013a.638.638,0,0,0,.615-.641v-.025a51.463,51.463,0,0,1,10.959-7.628.728.728,0,0,0,.1-.062.669.669,0,0,0,.339-.139.647.647,0,0,0,.088-.892,30.2,30.2,0,0,1-7-20.245.477.477,0,0,0-.025-.226v-.012l-.164-.44a.619.619,0,0,0-.8-.377.629.629,0,0,0-.377.8l.088.239a86.942,86.942,0,0,0-4.474,27.483C113.275,198.061,113.288,198.463,113.288,198.877Zm4.612-24.969a31.222,31.222,0,0,0,6.647,16.676,52.376,52.376,0,0,0-10.015,6.9A86.523,86.523,0,0,1,117.9,173.908ZM88.846,194.844a7.7,7.7,0,0,0,7.791-7.792,7.426,7.426,0,0,0-2.262-5.466,7.54,7.54,0,0,0-5.529-2.325,7.918,7.918,0,0,0-7.791,7.791,7.543,7.543,0,0,0,2.324,5.53A7.428,7.428,0,0,0,88.846,194.844Zm-4.574-12.378a6.09,6.09,0,0,1,4.574-1.948,6.333,6.333,0,0,1,4.649,1.948,6.216,6.216,0,0,1,1.885,4.586,6.459,6.459,0,0,1-6.534,6.535,6.222,6.222,0,0,1-4.587-1.885,6.335,6.335,0,0,1-1.948-4.65A6.1,6.1,0,0,1,84.272,182.466Zm10.1-.88a7.54,7.54,0,0,0-5.529-2.325,7.918,7.918,0,0,0-7.791,7.791,7.543,7.543,0,0,0,2.324,5.53,7.428,7.428,0,0,0,5.467,2.262,7.7,7.7,0,0,0,7.791-7.792A7.426,7.426,0,0,0,94.375,181.586Zm-.88,10.1a6.364,6.364,0,0,1-4.649,1.9,6.222,6.222,0,0,1-4.587-1.885,6.335,6.335,0,0,1-1.948-4.65,6.678,6.678,0,0,1,6.535-6.534,6.333,6.333,0,0,1,4.649,1.948,6.216,6.216,0,0,1,1.885,4.586A6.33,6.33,0,0,1,93.5,191.689Zm32.535-1.269a30.2,30.2,0,0,1-7-20.245.477.477,0,0,0-.025-.226v-.012l-.164-.44a.619.619,0,0,0-.8-.377.629.629,0,0,0-.377.8l.088.239a86.942,86.942,0,0,0-4.474,27.483c0,.415.013.817.013,1.231v.315a.627.627,0,0,0,.628.615h.013a.638.638,0,0,0,.615-.641v-.025a51.463,51.463,0,0,1,10.959-7.628.728.728,0,0,0,.1-.062.669.669,0,0,0,.339-.139A.647.647,0,0,0,126.03,190.42Zm-11.5,7.063a86.523,86.523,0,0,1,3.368-23.575,31.222,31.222,0,0,0,6.647,16.676A52.376,52.376,0,0,0,114.532,197.483Zm11.5-7.063a30.2,30.2,0,0,1-7-20.245.477.477,0,0,0-.025-.226v-.012l-.164-.44a.619.619,0,0,0-.8-.377.629.629,0,0,0-.377.8l.088.239a86.942,86.942,0,0,0-4.474,27.483c0,.415.013.817.013,1.231v.315a.627.627,0,0,0,.628.615h.013a.638.638,0,0,0,.615-.641v-.025a51.463,51.463,0,0,1,10.959-7.628.728.728,0,0,0,.1-.062.669.669,0,0,0,.339-.139A.647.647,0,0,0,126.03,190.42Zm-11.5,7.063a86.523,86.523,0,0,1,3.368-23.575,31.222,31.222,0,0,0,6.647,16.676A52.376,52.376,0,0,0,114.532,197.483Zm-20.157-15.9a7.54,7.54,0,0,0-5.529-2.325,7.918,7.918,0,0,0-7.791,7.791,7.543,7.543,0,0,0,2.324,5.53,7.428,7.428,0,0,0,5.467,2.262,7.7,7.7,0,0,0,7.791-7.792A7.426,7.426,0,0,0,94.375,181.586Zm-.88,10.1a6.364,6.364,0,0,1-4.649,1.9,6.222,6.222,0,0,1-4.587-1.885,6.335,6.335,0,0,1-1.948-4.65,6.678,6.678,0,0,1,6.535-6.534,6.333,6.333,0,0,1,4.649,1.948,6.216,6.216,0,0,1,1.885,4.586A6.33,6.33,0,0,1,93.5,191.689Zm.88-10.1a7.54,7.54,0,0,0-5.529-2.325,7.918,7.918,0,0,0-7.791,7.791,7.543,7.543,0,0,0,2.324,5.53,7.428,7.428,0,0,0,5.467,2.262,7.7,7.7,0,0,0,7.791-7.792A7.426,7.426,0,0,0,94.375,181.586Zm-.88,10.1a6.364,6.364,0,0,1-4.649,1.9,6.222,6.222,0,0,1-4.587-1.885,6.335,6.335,0,0,1-1.948-4.65,6.678,6.678,0,0,1,6.535-6.534,6.333,6.333,0,0,1,4.649,1.948,6.216,6.216,0,0,1,1.885,4.586A6.33,6.33,0,0,1,93.5,191.689Zm32.535-1.269a30.2,30.2,0,0,1-7-20.245.477.477,0,0,0-.025-.226v-.012l-.164-.44a.619.619,0,0,0-.8-.377.629.629,0,0,0-.377.8l.088.239a86.942,86.942,0,0,0-4.474,27.483c0,.415.013.817.013,1.231v.315a.627.627,0,0,0,.628.615h.013a.638.638,0,0,0,.615-.641v-.025a51.463,51.463,0,0,1,10.959-7.628.728.728,0,0,0,.1-.062.669.669,0,0,0,.339-.139A.647.647,0,0,0,126.03,190.42Zm-11.5,7.063a86.523,86.523,0,0,1,3.368-23.575,31.222,31.222,0,0,0,6.647,16.676A52.376,52.376,0,0,0,114.532,197.483Zm11.5-7.063a30.2,30.2,0,0,1-7-20.245.477.477,0,0,0-.025-.226v-.012l-.164-.44a.619.619,0,0,0-.8-.377.629.629,0,0,0-.377.8l.088.239a86.942,86.942,0,0,0-4.474,27.483c0,.415.013.817.013,1.231v.315a.627.627,0,0,0,.628.615h.013a.638.638,0,0,0,.615-.641v-.025a51.463,51.463,0,0,1,10.959-7.628.728.728,0,0,0,.1-.062.669.669,0,0,0,.339-.139A.647.647,0,0,0,126.03,190.42Zm-11.5,7.063a86.523,86.523,0,0,1,3.368-23.575,31.222,31.222,0,0,0,6.647,16.676A52.376,52.376,0,0,0,114.532,197.483Zm-20.157-15.9a7.54,7.54,0,0,0-5.529-2.325,7.918,7.918,0,0,0-7.791,7.791,7.543,7.543,0,0,0,2.324,5.53,7.428,7.428,0,0,0,5.467,2.262,7.7,7.7,0,0,0,7.791-7.792A7.426,7.426,0,0,0,94.375,181.586Zm-.88,10.1a6.364,6.364,0,0,1-4.649,1.9,6.222,6.222,0,0,1-4.587-1.885,6.335,6.335,0,0,1-1.948-4.65,6.678,6.678,0,0,1,6.535-6.534,6.333,6.333,0,0,1,4.649,1.948,6.216,6.216,0,0,1,1.885,4.586A6.33,6.33,0,0,1,93.5,191.689Zm.88-10.1a7.54,7.54,0,0,0-5.529-2.325,7.918,7.918,0,0,0-7.791,7.791,7.543,7.543,0,0,0,2.324,5.53,7.428,7.428,0,0,0,5.467,2.262,7.7,7.7,0,0,0,7.791-7.792A7.426,7.426,0,0,0,94.375,181.586Zm-.88,10.1a6.364,6.364,0,0,1-4.649,1.9,6.222,6.222,0,0,1-4.587-1.885,6.335,6.335,0,0,1-1.948-4.65,6.678,6.678,0,0,1,6.535-6.534,6.333,6.333,0,0,1,4.649,1.948,6.216,6.216,0,0,1,1.885,4.586A6.33,6.33,0,0,1,93.5,191.689Zm32.535-1.269a30.2,30.2,0,0,1-7-20.245.477.477,0,0,0-.025-.226v-.012l-.164-.44a.619.619,0,0,0-.8-.377.629.629,0,0,0-.377.8l.088.239a86.942,86.942,0,0,0-4.474,27.483c0,.415.013.817.013,1.231v.315a.627.627,0,0,0,.628.615h.013a.638.638,0,0,0,.615-.641v-.025a51.463,51.463,0,0,1,10.959-7.628.728.728,0,0,0,.1-.062.669.669,0,0,0,.339-.139A.647.647,0,0,0,126.03,190.42Zm-11.5,7.063a86.523,86.523,0,0,1,3.368-23.575,31.222,31.222,0,0,0,6.647,16.676A52.376,52.376,0,0,0,114.532,197.483Zm11.5-7.063a30.2,30.2,0,0,1-7-20.245.477.477,0,0,0-.025-.226v-.012l-.164-.44a.619.619,0,0,0-.8-.377.629.629,0,0,0-.377.8l.088.239a86.942,86.942,0,0,0-4.474,27.483c0,.415.013.817.013,1.231v.315a.627.627,0,0,0,.628.615h.013a.638.638,0,0,0,.615-.641v-.025a51.463,51.463,0,0,1,10.959-7.628.728.728,0,0,0,.1-.062.669.669,0,0,0,.339-.139A.647.647,0,0,0,126.03,190.42Zm-11.5,7.063a86.523,86.523,0,0,1,3.368-23.575,31.222,31.222,0,0,0,6.647,16.676A52.376,52.376,0,0,0,114.532,197.483Zm-20.157-15.9a7.54,7.54,0,0,0-5.529-2.325,7.918,7.918,0,0,0-7.791,7.791,7.543,7.543,0,0,0,2.324,5.53,7.428,7.428,0,0,0,5.467,2.262,7.7,7.7,0,0,0,7.791-7.792A7.426,7.426,0,0,0,94.375,181.586Zm-.88,10.1a6.364,6.364,0,0,1-4.649,1.9,6.222,6.222,0,0,1-4.587-1.885,6.335,6.335,0,0,1-1.948-4.65,6.678,6.678,0,0,1,6.535-6.534,6.333,6.333,0,0,1,4.649,1.948,6.216,6.216,0,0,1,1.885,4.586A6.33,6.33,0,0,1,93.5,191.689Zm.88-10.1a7.54,7.54,0,0,0-5.529-2.325,7.918,7.918,0,0,0-7.791,7.791,7.543,7.543,0,0,0,2.324,5.53,7.428,7.428,0,0,0,5.467,2.262,7.7,7.7,0,0,0,7.791-7.792A7.426,7.426,0,0,0,94.375,181.586Zm-.88,10.1a6.364,6.364,0,0,1-4.649,1.9,6.222,6.222,0,0,1-4.587-1.885,6.335,6.335,0,0,1-1.948-4.65,6.678,6.678,0,0,1,6.535-6.534,6.333,6.333,0,0,1,4.649,1.948,6.216,6.216,0,0,1,1.885,4.586A6.33,6.33,0,0,1,93.5,191.689Zm32.535-1.269a30.2,30.2,0,0,1-7-20.245.477.477,0,0,0-.025-.226v-.012l-.164-.44a.619.619,0,0,0-.8-.377.629.629,0,0,0-.377.8l.088.239a86.942,86.942,0,0,0-4.474,27.483c0,.415.013.817.013,1.231v.315a.627.627,0,0,0,.628.615h.013a.638.638,0,0,0,.615-.641v-.025a51.463,51.463,0,0,1,10.959-7.628.728.728,0,0,0,.1-.062.669.669,0,0,0,.339-.139A.647.647,0,0,0,126.03,190.42Zm-11.5,7.063a86.523,86.523,0,0,1,3.368-23.575,31.222,31.222,0,0,0,6.647,16.676A52.376,52.376,0,0,0,114.532,197.483Zm11.5-7.063a30.2,30.2,0,0,1-7-20.245.477.477,0,0,0-.025-.226v-.012l-.164-.44a.619.619,0,0,0-.8-.377.629.629,0,0,0-.377.8l.088.239a86.942,86.942,0,0,0-4.474,27.483c0,.415.013.817.013,1.231v.315a.627.627,0,0,0,.628.615h.013a.638.638,0,0,0,.615-.641v-.025a51.463,51.463,0,0,1,10.959-7.628.728.728,0,0,0,.1-.062.669.669,0,0,0,.339-.139A.647.647,0,0,0,126.03,190.42Zm-11.5,7.063a86.523,86.523,0,0,1,3.368-23.575,31.222,31.222,0,0,0,6.647,16.676A52.376,52.376,0,0,0,114.532,197.483Zm-20.157-15.9a7.54,7.54,0,0,0-5.529-2.325,7.918,7.918,0,0,0-7.791,7.791,7.543,7.543,0,0,0,2.324,5.53,7.428,7.428,0,0,0,5.467,2.262,7.7,7.7,0,0,0,7.791-7.792A7.426,7.426,0,0,0,94.375,181.586Zm-.88,10.1a6.364,6.364,0,0,1-4.649,1.9,6.222,6.222,0,0,1-4.587-1.885,6.335,6.335,0,0,1-1.948-4.65,6.678,6.678,0,0,1,6.535-6.534,6.333,6.333,0,0,1,4.649,1.948,6.216,6.216,0,0,1,1.885,4.586A6.33,6.33,0,0,1,93.5,191.689Zm.88-10.1a7.54,7.54,0,0,0-5.529-2.325,7.918,7.918,0,0,0-7.791,7.791,7.543,7.543,0,0,0,2.324,5.53,7.428,7.428,0,0,0,5.467,2.262,7.7,7.7,0,0,0,7.791-7.792A7.426,7.426,0,0,0,94.375,181.586Zm-.88,10.1a6.364,6.364,0,0,1-4.649,1.9,6.222,6.222,0,0,1-4.587-1.885,6.335,6.335,0,0,1-1.948-4.65,6.678,6.678,0,0,1,6.535-6.534,6.333,6.333,0,0,1,4.649,1.948,6.216,6.216,0,0,1,1.885,4.586A6.33,6.33,0,0,1,93.5,191.689Zm32.535-1.269a30.2,30.2,0,0,1-7-20.245.477.477,0,0,0-.025-.226v-.012l-.164-.44a.619.619,0,0,0-.8-.377.629.629,0,0,0-.377.8l.088.239a86.942,86.942,0,0,0-4.474,27.483c0,.415.013.817.013,1.231v.315a.627.627,0,0,0,.628.615h.013a.638.638,0,0,0,.615-.641v-.025a51.463,51.463,0,0,1,10.959-7.628.728.728,0,0,0,.1-.062.669.669,0,0,0,.339-.139A.647.647,0,0,0,126.03,190.42Zm-11.5,7.063a86.523,86.523,0,0,1,3.368-23.575,31.222,31.222,0,0,0,6.647,16.676A52.376,52.376,0,0,0,114.532,197.483Zm122.361-69.619a7.371,7.371,0,0,0-5.479-2.325,7.542,7.542,0,0,0-5.53,2.325,7.426,7.426,0,0,0-2.262,5.466,7.7,7.7,0,0,0,7.792,7.791,7.426,7.426,0,0,0,5.466-2.262,7.54,7.54,0,0,0,2.325-5.529A7.359,7.359,0,0,0,236.893,127.864ZM236,137.98a6.224,6.224,0,0,1-4.587,1.885,6.459,6.459,0,0,1-6.535-6.535,6.224,6.224,0,0,1,1.885-4.587,6.334,6.334,0,0,1,4.65-1.947,6.675,6.675,0,0,1,6.534,6.534A6.338,6.338,0,0,1,236,137.98Zm.892-10.116a7.371,7.371,0,0,0-5.479-2.325,7.542,7.542,0,0,0-5.53,2.325,7.426,7.426,0,0,0-2.262,5.466,7.7,7.7,0,0,0,7.792,7.791,7.426,7.426,0,0,0,5.466-2.262,7.54,7.54,0,0,0,2.325-5.529A7.359,7.359,0,0,0,236.893,127.864ZM236,137.98a6.224,6.224,0,0,1-4.587,1.885,6.459,6.459,0,0,1-6.535-6.535,6.224,6.224,0,0,1,1.885-4.587,6.334,6.334,0,0,1,4.65-1.947,6.675,6.675,0,0,1,6.534,6.534A6.338,6.338,0,0,1,236,137.98Zm.892-10.116a7.371,7.371,0,0,0-5.479-2.325,7.542,7.542,0,0,0-5.53,2.325,7.426,7.426,0,0,0-2.262,5.466,7.7,7.7,0,0,0,7.792,7.791,7.426,7.426,0,0,0,5.466-2.262,7.54,7.54,0,0,0,2.325-5.529A7.359,7.359,0,0,0,236.893,127.864ZM236,137.98a6.224,6.224,0,0,1-4.587,1.885,6.459,6.459,0,0,1-6.535-6.535,6.224,6.224,0,0,1,1.885-4.587,6.334,6.334,0,0,1,4.65-1.947,6.675,6.675,0,0,1,6.534,6.534A6.338,6.338,0,0,1,236,137.98Zm.892-10.116a7.371,7.371,0,0,0-5.479-2.325,7.542,7.542,0,0,0-5.53,2.325,7.426,7.426,0,0,0-2.262,5.466,7.7,7.7,0,0,0,7.792,7.791,7.426,7.426,0,0,0,5.466-2.262,7.54,7.54,0,0,0,2.325-5.529A7.359,7.359,0,0,0,236.893,127.864ZM236,137.98a6.224,6.224,0,0,1-4.587,1.885,6.459,6.459,0,0,1-6.535-6.535,6.224,6.224,0,0,1,1.885-4.587,6.334,6.334,0,0,1,4.65-1.947,6.675,6.675,0,0,1,6.534,6.534A6.338,6.338,0,0,1,236,137.98Zm.892-10.116a7.371,7.371,0,0,0-5.479-2.325,7.542,7.542,0,0,0-5.53,2.325,7.426,7.426,0,0,0-2.262,5.466,7.7,7.7,0,0,0,7.792,7.791,7.426,7.426,0,0,0,5.466-2.262,7.54,7.54,0,0,0,2.325-5.529A7.359,7.359,0,0,0,236.893,127.864ZM236,137.98a6.224,6.224,0,0,1-4.587,1.885,6.459,6.459,0,0,1-6.535-6.535,6.224,6.224,0,0,1,1.885-4.587,6.334,6.334,0,0,1,4.65-1.947,6.675,6.675,0,0,1,6.534,6.534A6.338,6.338,0,0,1,236,137.98Zm.892-10.116a7.371,7.371,0,0,0-5.479-2.325,7.542,7.542,0,0,0-5.53,2.325,7.426,7.426,0,0,0-2.262,5.466,7.7,7.7,0,0,0,7.792,7.791,7.426,7.426,0,0,0,5.466-2.262,7.54,7.54,0,0,0,2.325-5.529A7.359,7.359,0,0,0,236.893,127.864ZM236,137.98a6.224,6.224,0,0,1-4.587,1.885,6.459,6.459,0,0,1-6.535-6.535,6.224,6.224,0,0,1,1.885-4.587,6.334,6.334,0,0,1,4.65-1.947,6.675,6.675,0,0,1,6.534,6.534A6.338,6.338,0,0,1,236,137.98Zm.892-10.116a7.371,7.371,0,0,0-5.479-2.325,7.542,7.542,0,0,0-5.53,2.325,7.426,7.426,0,0,0-2.262,5.466,7.7,7.7,0,0,0,7.792,7.791,7.426,7.426,0,0,0,5.466-2.262,7.54,7.54,0,0,0,2.325-5.529A7.359,7.359,0,0,0,236.893,127.864ZM236,137.98a6.224,6.224,0,0,1-4.587,1.885,6.459,6.459,0,0,1-6.535-6.535,6.224,6.224,0,0,1,1.885-4.587,6.334,6.334,0,0,1,4.65-1.947,6.675,6.675,0,0,1,6.534,6.534A6.338,6.338,0,0,1,236,137.98Zm.892-10.116a7.371,7.371,0,0,0-5.479-2.325,7.542,7.542,0,0,0-5.53,2.325,7.426,7.426,0,0,0-2.262,5.466,7.7,7.7,0,0,0,7.792,7.791,7.426,7.426,0,0,0,5.466-2.262,7.54,7.54,0,0,0,2.325-5.529A7.359,7.359,0,0,0,236.893,127.864ZM236,137.98a6.224,6.224,0,0,1-4.587,1.885,6.459,6.459,0,0,1-6.535-6.535,6.224,6.224,0,0,1,1.885-4.587,6.334,6.334,0,0,1,4.65-1.947,6.675,6.675,0,0,1,6.534,6.534A6.338,6.338,0,0,1,236,137.98Zm.892-10.116a7.371,7.371,0,0,0-5.479-2.325,7.542,7.542,0,0,0-5.53,2.325,7.426,7.426,0,0,0-2.262,5.466,7.7,7.7,0,0,0,7.792,7.791,7.426,7.426,0,0,0,5.466-2.262,7.54,7.54,0,0,0,2.325-5.529A7.359,7.359,0,0,0,236.893,127.864ZM236,137.98a6.224,6.224,0,0,1-4.587,1.885,6.459,6.459,0,0,1-6.535-6.535,6.224,6.224,0,0,1,1.885-4.587,6.334,6.334,0,0,1,4.65-1.947,6.675,6.675,0,0,1,6.534,6.534A6.338,6.338,0,0,1,236,137.98Zm.892-10.116a7.371,7.371,0,0,0-5.479-2.325,7.542,7.542,0,0,0-5.53,2.325,7.426,7.426,0,0,0-2.262,5.466,7.7,7.7,0,0,0,7.792,7.791,7.426,7.426,0,0,0,5.466-2.262,7.54,7.54,0,0,0,2.325-5.529A7.359,7.359,0,0,0,236.893,127.864ZM236,137.98a6.224,6.224,0,0,1-4.587,1.885,6.459,6.459,0,0,1-6.535-6.535,6.224,6.224,0,0,1,1.885-4.587,6.334,6.334,0,0,1,4.65-1.947,6.675,6.675,0,0,1,6.534,6.534A6.338,6.338,0,0,1,236,137.98ZM324.231,7.539a.653.653,0,0,0-.239-.277L313.235.388,313.2.313a.622.622,0,0,0-.854-.226c-6.221,3.631-8.169,9.7-5.831,17.982.6,3.67-1.961,9-7.565,15.759l-.277.264c-8.042,7.113-12.994,15-14.728,23.449v.013c-8.759,4.7-14.627,11.485-17.455,20.156-10.669,2.262-17.819,8.533-21.263,18.612l-11.46,25.887h-4.889L216.233,93.28c-3.066-8.52-9.689-13.71-19.679-15.431-4.235-10.72-10.594-18.059-18.9-21.816.892-9.211-3.795-16.236-13.936-20.911a31.4,31.4,0,0,1-8.759-15.344.5.5,0,0,0,.15-.263c2.463-9.023,2.061-14.188-1.244-15.772A7.344,7.344,0,0,0,148.65,1.23a7.6,7.6,0,0,0-5.265,2.715,5.374,5.374,0,0,0-3.77,2.475c-1.244,2.111-1.119,5.341.415,9.865a.625.625,0,0,0,.075.163L147.519,26.7c4.549,16.361,12.039,29.87,22.281,40.162,5.265,13.233,14.3,25.31,26.867,35.9-.188,12.253,2.564,23.135,8.194,32.347a.555.555,0,0,0,0,.351c3.305,10.267,3.971,20.082,2,29.2a.63.63,0,0,0,.176.591c-7.226,26.176-6.987,54,.7,82.7,1.772,7.188,1.659,12.868-.326,16.877-.151.3-.3.59-.528.967-2.5,6.623.7,24.43,9.789,54.439a.052.052,0,0,0,.013.037.963.963,0,0,0-.038.264c.478,7.452-2.9,12.906-10.33,16.676H170.906a.592.592,0,0,0-.3.076l-13.76,7.665a.64.64,0,0,0-.252.855.6.6,0,0,0,.252.251.633.633,0,0,0,.553.327l147.368-.063.2.176a.676.676,0,0,0,.4.138.642.642,0,0,0,.49-.226.633.633,0,0,0-.088-.88l-.364-.314a.027.027,0,0,1-.025-.025l-9.865-7.842a.64.64,0,0,0-.39-.138H254.938c-7.9-3.971-10.606-10.418-8.256-19.641,8.922-24.895,11.712-42.576,8.256-52.592a23.259,23.259,0,0,1-.3-16.474c7.665-27.4,8.231-54.64,1.7-80.954v-.428c0-.037-.012-.088-.012-.125a63.313,63.313,0,0,1,2.073-33.792.35.35,0,0,0,.038-.163l.025-.428a117.936,117.936,0,0,0,7.666-29.745c13.622-10.417,22.858-22.607,27.445-36.229,5.982-5.215,11.2-13.484,15.47-24.606,3.053-9.135,6.911-16.537,11.448-21.979C324.733,15.719,325.99,11.5,324.231,7.539ZM294.913,338.48l8.281,6.6-144.076.063,11.951-6.66Zm-66.98-13.723a58.679,58.679,0,0,1-1.684-27.822.629.629,0,0,0-.163-.553c4.26-12,3.455-23.613-2.388-34.533.012-.025.025-.063.038-.088a290.9,290.9,0,0,0,7.527-47.062,247.765,247.765,0,0,0,7.666,47.791l.012.113c-4.888,11.548-5.542,22.469-1.935,32.5l-.628,23.474c-4.4,5.115-5.555,11.386-3.469,18.649H227.33c2.877-3.908,3.078-7.892.6-11.825l.025-.427A1.288,1.288,0,0,0,227.933,324.757ZM319.556,19.225c-4.662,5.6-8.608,13.145-11.7,22.394-4.222,10.983-9.349,19.114-15.243,24.191a.671.671,0,0,0-.188.276c-4.512,13.522-13.685,25.611-27.27,35.953a.659.659,0,0,0-.251.428,116.518,116.518,0,0,1-7.653,29.782.527.527,0,0,0-.038.2l-.038.439a64.715,64.715,0,0,0-2.1,34.307v.44a.642.642,0,0,0,.012.151c6.51,26.126,5.957,53.169-1.646,80.351a24.438,24.438,0,0,0,.314,17.279c3.355,9.714.566,27.118-8.281,51.8-2.287,8.973.037,15.7,6.9,20.006h-18.2a.782.782,0,0,0-.025-.239c-2.036-6.949-.917-12.931,3.33-17.756a.662.662,0,0,0,.151-.4l.629-23.814a.715.715,0,0,0-.038-.226c-3.556-9.79-2.9-20.5,1.935-31.831a.682.682,0,0,0,.05-.315l-.05-.377a251.83,251.83,0,0,1-8.143-60.018v-.012c-.025-.39-.025-.792-.038-1.182a.656.656,0,0,0-.641-.615.622.622,0,0,0-.615.641c.012.4.012.8.037,1.156a297.444,297.444,0,0,1-8.231,59.163c-.05.126-.075.239-.113.365a.633.633,0,0,0,.063.452c5.881,10.858,6.61,22.419,2.186,34.395a.611.611,0,0,0,.239.729,60.132,60.132,0,0,0,1.8,27.684l-.025.515a.572.572,0,0,0,.1.377c2.4,3.707,2.136,7.326-.817,11.046a.576.576,0,0,0-.126.264h-16.94c6.447-3.946,9.476-9.563,9.011-16.751a.51.51,0,0,0-.038-.189.594.594,0,0,0,.013-.389C209,290.563,205.7,272.518,208.015,266.36c.188-.314.364-.628.528-.955,2.111-4.3,2.262-10.267.414-17.757-7.741-28.852-7.879-56.788-.44-83.04a.627.627,0,0,0-.226-.678c1.772-9.048,1.018-18.75-2.224-28.841a.681.681,0,0,0-.063-.515c-5.6-9.1-8.319-19.893-8.08-32.082a.609.609,0,0,0-.226-.49c-12.554-10.544-21.565-22.557-26.767-35.727a.824.824,0,0,0-.151-.214C160.626,55.9,153.2,42.5,148.7,26.25a.566.566,0,0,0-.088-.2L141.186,15.8c-1.358-4.059-1.521-6.987-.49-8.734a4.2,4.2,0,0,1,3.116-1.923.612.612,0,0,0,.339-.188c1.533-1.621,3.054-2.451,4.524-2.463a6.3,6.3,0,0,1,4.373,2.224.7.7,0,0,0,.2.138c2.664,1.182,2.89,6.145.653,14.339a.6.6,0,0,0-.025.151.619.619,0,0,0-.164.6,32.534,32.534,0,0,0,9.224,16.173.488.488,0,0,0,.164.113c9.89,4.511,14.225,11.034,13.283,19.868-.013.088-.025.163-.038.251a.617.617,0,0,0,.377.654c8.281,3.594,14.615,10.87,18.787,21.639a.6.6,0,0,0,.49.39c9.7,1.583,16.11,6.522,19.064,14.715l12.818,29.343a.632.632,0,0,0,.578.377h5.717a.632.632,0,0,0,.578-.377l11.637-26.314C249.736,87,256.7,80.965,267.1,78.879a.655.655,0,0,0,.477-.427c2.69-8.571,8.445-15.256,17.1-19.868a.652.652,0,0,0,.226-.226l.163-.251a1.079,1.079,0,0,0,.088-.214c1.646-8.206,6.472-15.909,14.351-22.871l.339-.314c6-7.226,8.571-12.743,7.88-16.915-2.149-7.628-.578-12.994,4.813-16.362L323.15,8.217C324.6,11.66,323.426,15.254,319.556,19.225ZM231.414,125.539a7.542,7.542,0,0,0-5.53,2.325,7.426,7.426,0,0,0-2.262,5.466,7.7,7.7,0,0,0,7.792,7.791,7.426,7.426,0,0,0,5.466-2.262,7.54,7.54,0,0,0,2.325-5.529,7.919,7.919,0,0,0-7.791-7.791ZM236,137.98a6.224,6.224,0,0,1-4.587,1.885,6.459,6.459,0,0,1-6.535-6.535,6.224,6.224,0,0,1,1.885-4.587,6.334,6.334,0,0,1,4.65-1.947,6.675,6.675,0,0,1,6.534,6.534A6.338,6.338,0,0,1,236,137.98Zm.892-10.116a7.371,7.371,0,0,0-5.479-2.325,7.542,7.542,0,0,0-5.53,2.325,7.426,7.426,0,0,0-2.262,5.466,7.7,7.7,0,0,0,7.792,7.791,7.426,7.426,0,0,0,5.466-2.262,7.54,7.54,0,0,0,2.325-5.529A7.359,7.359,0,0,0,236.893,127.864ZM236,137.98a6.224,6.224,0,0,1-4.587,1.885,6.459,6.459,0,0,1-6.535-6.535,6.224,6.224,0,0,1,1.885-4.587,6.334,6.334,0,0,1,4.65-1.947,6.675,6.675,0,0,1,6.534,6.534A6.338,6.338,0,0,1,236,137.98Zm.892-10.116a7.371,7.371,0,0,0-5.479-2.325,7.542,7.542,0,0,0-5.53,2.325,7.426,7.426,0,0,0-2.262,5.466,7.7,7.7,0,0,0,7.792,7.791,7.426,7.426,0,0,0,5.466-2.262,7.54,7.54,0,0,0,2.325-5.529A7.359,7.359,0,0,0,236.893,127.864ZM236,137.98a6.224,6.224,0,0,1-4.587,1.885,6.459,6.459,0,0,1-6.535-6.535,6.224,6.224,0,0,1,1.885-4.587,6.334,6.334,0,0,1,4.65-1.947,6.675,6.675,0,0,1,6.534,6.534A6.338,6.338,0,0,1,236,137.98Zm.892-10.116a7.371,7.371,0,0,0-5.479-2.325,7.542,7.542,0,0,0-5.53,2.325,7.426,7.426,0,0,0-2.262,5.466,7.7,7.7,0,0,0,7.792,7.791,7.426,7.426,0,0,0,5.466-2.262,7.54,7.54,0,0,0,2.325-5.529A7.359,7.359,0,0,0,236.893,127.864ZM236,137.98a6.224,6.224,0,0,1-4.587,1.885,6.459,6.459,0,0,1-6.535-6.535,6.224,6.224,0,0,1,1.885-4.587,6.334,6.334,0,0,1,4.65-1.947,6.675,6.675,0,0,1,6.534,6.534A6.338,6.338,0,0,1,236,137.98Zm.892-10.116a7.371,7.371,0,0,0-5.479-2.325,7.542,7.542,0,0,0-5.53,2.325,7.426,7.426,0,0,0-2.262,5.466,7.7,7.7,0,0,0,7.792,7.791,7.426,7.426,0,0,0,5.466-2.262,7.54,7.54,0,0,0,2.325-5.529A7.359,7.359,0,0,0,236.893,127.864ZM236,137.98a6.224,6.224,0,0,1-4.587,1.885,6.459,6.459,0,0,1-6.535-6.535,6.224,6.224,0,0,1,1.885-4.587,6.334,6.334,0,0,1,4.65-1.947,6.675,6.675,0,0,1,6.534,6.534A6.338,6.338,0,0,1,236,137.98Zm.892-10.116a7.371,7.371,0,0,0-5.479-2.325,7.542,7.542,0,0,0-5.53,2.325,7.426,7.426,0,0,0-2.262,5.466,7.7,7.7,0,0,0,7.792,7.791,7.426,7.426,0,0,0,5.466-2.262,7.54,7.54,0,0,0,2.325-5.529A7.359,7.359,0,0,0,236.893,127.864ZM236,137.98a6.224,6.224,0,0,1-4.587,1.885,6.459,6.459,0,0,1-6.535-6.535,6.224,6.224,0,0,1,1.885-4.587,6.334,6.334,0,0,1,4.65-1.947,6.675,6.675,0,0,1,6.534,6.534A6.338,6.338,0,0,1,236,137.98Zm.892-10.116a7.371,7.371,0,0,0-5.479-2.325,7.542,7.542,0,0,0-5.53,2.325,7.426,7.426,0,0,0-2.262,5.466,7.7,7.7,0,0,0,7.792,7.791,7.426,7.426,0,0,0,5.466-2.262,7.54,7.54,0,0,0,2.325-5.529A7.359,7.359,0,0,0,236.893,127.864ZM236,137.98a6.224,6.224,0,0,1-4.587,1.885,6.459,6.459,0,0,1-6.535-6.535,6.224,6.224,0,0,1,1.885-4.587,6.334,6.334,0,0,1,4.65-1.947,6.675,6.675,0,0,1,6.534,6.534A6.338,6.338,0,0,1,236,137.98Zm.892-10.116a7.371,7.371,0,0,0-5.479-2.325,7.542,7.542,0,0,0-5.53,2.325,7.426,7.426,0,0,0-2.262,5.466,7.7,7.7,0,0,0,7.792,7.791,7.426,7.426,0,0,0,5.466-2.262,7.54,7.54,0,0,0,2.325-5.529A7.359,7.359,0,0,0,236.893,127.864ZM236,137.98a6.224,6.224,0,0,1-4.587,1.885,6.459,6.459,0,0,1-6.535-6.535,6.224,6.224,0,0,1,1.885-4.587,6.334,6.334,0,0,1,4.65-1.947,6.675,6.675,0,0,1,6.534,6.534A6.338,6.338,0,0,1,236,137.98Zm.892-10.116a7.371,7.371,0,0,0-5.479-2.325,7.542,7.542,0,0,0-5.53,2.325,7.426,7.426,0,0,0-2.262,5.466,7.7,7.7,0,0,0,7.792,7.791,7.426,7.426,0,0,0,5.466-2.262,7.54,7.54,0,0,0,2.325-5.529A7.359,7.359,0,0,0,236.893,127.864ZM236,137.98a6.224,6.224,0,0,1-4.587,1.885,6.459,6.459,0,0,1-6.535-6.535,6.224,6.224,0,0,1,1.885-4.587,6.334,6.334,0,0,1,4.65-1.947,6.675,6.675,0,0,1,6.534,6.534A6.338,6.338,0,0,1,236,137.98Zm.892-10.116a7.371,7.371,0,0,0-5.479-2.325,7.542,7.542,0,0,0-5.53,2.325,7.426,7.426,0,0,0-2.262,5.466,7.7,7.7,0,0,0,7.792,7.791,7.426,7.426,0,0,0,5.466-2.262,7.54,7.54,0,0,0,2.325-5.529A7.359,7.359,0,0,0,236.893,127.864ZM236,137.98a6.224,6.224,0,0,1-4.587,1.885,6.459,6.459,0,0,1-6.535-6.535,6.224,6.224,0,0,1,1.885-4.587,6.334,6.334,0,0,1,4.65-1.947,6.675,6.675,0,0,1,6.534,6.534A6.338,6.338,0,0,1,236,137.98Zm109.744,54.878.1-.214a.63.63,0,1,0-1.156-.5l-.189.427a.736.736,0,0,0-.05.226v.063a29.963,29.963,0,0,1-6.962,20.245.648.648,0,0,0,.088.892,1.377,1.377,0,0,1,.44.2,50.966,50.966,0,0,1,10.958,7.628v.038a.629.629,0,0,0,1.257,0v-.314A87.158,87.158,0,0,0,345.745,192.858Zm-6.774,20.408a30.99,30.99,0,0,0,6.623-16.65,85.69,85.69,0,0,1,3.38,23.549A50.9,50.9,0,0,0,338.971,213.266Zm41.181-9a7.371,7.371,0,0,0-5.479-2.325,7.54,7.54,0,0,0-5.529,2.325,7.426,7.426,0,0,0-2.262,5.466,7.7,7.7,0,0,0,7.791,7.791,7.426,7.426,0,0,0,5.466-2.262,7.54,7.54,0,0,0,2.325-5.529A7.357,7.357,0,0,0,380.152,204.269Zm-.892,10.116a6.224,6.224,0,0,1-4.587,1.885,6.459,6.459,0,0,1-6.535-6.535,6.222,6.222,0,0,1,1.885-4.587,6.335,6.335,0,0,1,4.65-1.948,6.678,6.678,0,0,1,6.535,6.535A6.335,6.335,0,0,1,379.26,214.385ZM126.03,190.42a30.2,30.2,0,0,1-7-20.245.477.477,0,0,0-.025-.226v-.012l-.164-.44a.619.619,0,0,0-.8-.377.629.629,0,0,0-.377.8l.088.239a86.942,86.942,0,0,0-4.474,27.483c0,.415.013.817.013,1.231v.315a.627.627,0,0,0,.628.615h.013a.638.638,0,0,0,.615-.641v-.025a51.463,51.463,0,0,1,10.959-7.628.728.728,0,0,0,.1-.062.669.669,0,0,0,.339-.139A.647.647,0,0,0,126.03,190.42Zm-11.5,7.063a86.523,86.523,0,0,1,3.368-23.575,31.222,31.222,0,0,0,6.647,16.676A52.376,52.376,0,0,0,114.532,197.483Zm-20.157-15.9a7.54,7.54,0,0,0-5.529-2.325,7.918,7.918,0,0,0-7.791,7.791,7.543,7.543,0,0,0,2.324,5.53,7.428,7.428,0,0,0,5.467,2.262,7.7,7.7,0,0,0,7.791-7.792A7.426,7.426,0,0,0,94.375,181.586Zm-.88,10.1a6.364,6.364,0,0,1-4.649,1.9,6.222,6.222,0,0,1-4.587-1.885,6.335,6.335,0,0,1-1.948-4.65,6.678,6.678,0,0,1,6.535-6.534,6.333,6.333,0,0,1,4.649,1.948,6.216,6.216,0,0,1,1.885,4.586A6.33,6.33,0,0,1,93.5,191.689Zm294.649-47.464c2.476-3.895,1.282-6.4-.289-7.866.955-6.321.226-11.134-2.174-14.3-1.922-2.526-4.926-4.034-8.935-4.5-5.3-.515-9.261.5-11.774,3.041-2.665,2.677-3.72,7.063-3.155,13.057a10.721,10.721,0,0,0-1.282,1.043c-2.739,2.626-2.953,5.831-.628,9.513.176.276.365.553.553.817a25.166,25.166,0,0,0,2.815,3.242.6.6,0,0,0-.013.364c1.245,4.524,1.094,8.6-.477,12.089a.659.659,0,0,0,0,.49l10.807,25.7.126.314a.614.614,0,0,0,.578.39.5.5,0,0,0,.226-.05.607.607,0,0,0,.352-.805l-.025-.088,10.078-25.02a.6.6,0,0,0,0-.465c-1.834-4.637-1.948-8.935-.364-12.792A24.3,24.3,0,0,0,388.144,144.225Zm-4.687,3.569c-1.747,4.135-1.671,8.709.214,13.622l-9.513,23.613-10.116-24.052a18.826,18.826,0,0,0,.427-12.667.551.551,0,0,0-.138-.252.656.656,0,0,0-.151-.666,23.043,23.043,0,0,1-2.7-3.091c-.176-.252-.352-.5-.5-.754-2-3.154-1.86-5.743.44-7.942a11.424,11.424,0,0,1,1.42-1.131.624.624,0,0,0,.277-.578c-.616-5.794.314-9.966,2.752-12.416,2.237-2.25,5.856-3.142,10.744-2.664,3.657.414,6.371,1.759,8.068,4.008,2.237,2.928,2.865,7.54,1.885,13.673a.6.6,0,0,0,.214.578c1.935,1.634,2.048,3.745.314,6.472a23.417,23.417,0,0,1-3.481,4.034A.648.648,0,0,0,383.457,147.794Zm-283.2-21.84a.555.555,0,0,0-.012-.377c3.581-3.494,5.2-6.548,4.951-9.325-.189-1.985-1.357-3.757-3.494-5.278.566-5.994-.49-10.38-3.141-13.057-2.514-2.538-6.485-3.556-11.8-3.041-4,.453-7,1.961-8.923,4.487-2.4,3.154-3.129,7.954-2.174,14.275a4.952,4.952,0,0,0-1.709,3.557c-.088,2.412,1.559,5.2,5,8.52,1.583,3.845,1.458,8.143-.377,12.793a.665.665,0,0,0,.012.465l10.079,25.02-.025.075a.619.619,0,0,0,.339.817.538.538,0,0,0,.239.05.615.615,0,0,0,.578-.389l10.933-26.013a.693.693,0,0,0,0-.5C99.15,134.537,98.987,130.478,100.256,125.954ZM89.361,162.346l-9.513-23.612c1.885-4.926,1.948-9.513.214-13.622a.888.888,0,0,0-.139-.214c-3.191-3.054-4.787-5.63-4.712-7.666a3.756,3.756,0,0,1,1.533-2.865.613.613,0,0,0,.214-.578c-.98-6.145-.352-10.744,1.872-13.672,1.709-2.237,4.424-3.582,8.068-3.984,4.9-.478,8.533.415,10.77,2.664,2.425,2.451,3.355,6.623,2.739,12.416a.659.659,0,0,0,.277.591c2.01,1.344,3.1,2.877,3.254,4.574.214,2.337-1.332,5.152-4.6,8.331a.657.657,0,0,0-.151.667.534.534,0,0,0-.138.251c-1.32,4.7-1.181,8.96.427,12.667Zm147.532-34.482a7.371,7.371,0,0,0-5.479-2.325,7.542,7.542,0,0,0-5.53,2.325,7.426,7.426,0,0,0-2.262,5.466,7.7,7.7,0,0,0,7.792,7.791,7.426,7.426,0,0,0,5.466-2.262,7.54,7.54,0,0,0,2.325-5.529A7.359,7.359,0,0,0,236.893,127.864ZM236,137.98a6.224,6.224,0,0,1-4.587,1.885,6.459,6.459,0,0,1-6.535-6.535,6.224,6.224,0,0,1,1.885-4.587,6.334,6.334,0,0,1,4.65-1.947,6.675,6.675,0,0,1,6.534,6.534A6.338,6.338,0,0,1,236,137.98Zm8.092-79.534c.956-6.334.227-11.134-2.174-14.3-1.922-2.526-4.926-4.034-8.934-4.5-5.3-.515-9.262.5-11.775,3.041-2.664,2.677-3.72,7.063-3.155,13.057-3.883,2.74-4.523,6.4-1.885,10.556a21.241,21.241,0,0,0,3.343,4.059.593.593,0,0,0-.012.364c1.244,4.524,1.093,8.6-.478,12.089a.661.661,0,0,0,0,.491L229.83,109l.113.314a.645.645,0,0,0,.591.39.5.5,0,0,0,.226-.05.607.607,0,0,0,.352-.805l-.025-.088,10.078-25.02a.6.6,0,0,0,0-.465c-1.834-4.637-1.96-8.934-.364-12.792a23.588,23.588,0,0,0,3.581-4.172C246.883,62.4,245.677,59.9,244.093,58.446Zm-.766,7.188a23.02,23.02,0,0,1-3.481,4.034.55.55,0,0,0-.151.213c-1.747,4.135-1.671,8.709.214,13.623L230.4,107.116,220.28,83.064c1.6-3.707,1.734-7.967.427-12.667a.542.542,0,0,0-.138-.252.656.656,0,0,0-.151-.666,19.176,19.176,0,0,1-3.179-3.845c-2.35-3.707-1.76-6.673,1.834-9.061a.656.656,0,0,0,.277-.59c-.616-5.793.314-9.966,2.752-12.416,2.237-2.249,5.856-3.142,10.744-2.664,3.657.415,6.372,1.759,8.068,4.009,2.224,2.928,2.865,7.54,1.885,13.672a.591.591,0,0,0,.214.578C245,60.808,245.1,62.869,243.327,65.634Z"/>
              <path d="M455.426,480.294l-448.7.754,22.105-10.129a.656.656,0,0,0,1.018-.49V398.108H149.291l-.691,71.617v.7a.629.629,0,0,0,1.257,0v-.088l6.371-.226a.625.625,0,0,0,.6-.628V353.811h148.6l.251,115.676a.631.631,0,0,0,.629.628H312.4a.623.623,0,0,0,.629-.628l.188-48.319h120.2v50.2a.621.621,0,0,0,.5.616.644.644,0,0,0,.415.666Z"/>
              <polygon points="149.794 381.835 149.794 390.317 33.239 390.128 46.182 381.835 149.794 381.835"/>
              <path d="M430.28,412.811,313.725,413v-8.483H417.336Z"/>
              <polygon points="303.194 345.077 159.118 345.14 171.069 338.48 294.913 338.48 303.194 345.077"/>
              <path d="M387.089,143.547a23.417,23.417,0,0,1-3.481,4.034.648.648,0,0,0-.151.213c-1.747,4.135-1.671,8.709.214,13.622l-9.513,23.613-10.116-24.052a18.826,18.826,0,0,0,.427-12.667.551.551,0,0,0-.138-.252.656.656,0,0,0-.151-.666,23.043,23.043,0,0,1-2.7-3.091c-.176-.252-.352-.5-.5-.754-2-3.154-1.86-5.743.44-7.942a11.424,11.424,0,0,1,1.42-1.131.624.624,0,0,0,.277-.578c-.616-5.794.314-9.966,2.752-12.416,2.237-2.25,5.856-3.142,10.744-2.664,3.657.414,6.371,1.759,8.068,4.008,2.237,2.928,2.865,7.54,1.885,13.673a.6.6,0,0,0,.214.578C388.71,138.709,388.823,140.82,387.089,143.547Z"/>
              <path d="M424.449,216.157a49.349,49.349,0,0,0-7.075-24.882.539.539,0,0,1-.1-.365c.98-15.155-2.551-23.235-10.493-24.027a.653.653,0,0,1-.39-.2.642.642,0,0,1-.151.012c-5.3-.3-9.412-1.859-12.24-4.662l-15.8,38.14a.614.614,0,0,1-.578.389h-6.409a.622.622,0,0,1-.628-.628.742.742,0,0,1,.063-.289c0-.013-.013-.025-.013-.038l-15.8-37.976c-3.858,3.556-9,5.228-15.319,4.939-7.527,1.068-10.342,9.663-8.269,25.56a.674.674,0,0,1-.062.352.657.657,0,0,1-.063.3c-6.874,14.74-8.948,24.844-6.145,30.046A145.617,145.617,0,0,0,350.445,232a.615.615,0,0,1,.477.54,106.251,106.251,0,0,1-2.815,34.986l.05.653v.126c-2.538,19.654-.54,36.87,5.919,51.184a.6.6,0,0,1,.038.163,55.8,55.8,0,0,1-1.269,23.512c-.013.038-.025.088-.038.126a93.236,93.236,0,0,0,2.061,21.69,55.384,55.384,0,0,0,4.9,13.609c2.614,7.54,2.827,13.56.653,17.971a14.308,14.308,0,0,1-7.351,6.7h18.3a.643.643,0,0,1,.05-.478c1.219-2.413.641-5.567-1.734-9.375a.458.458,0,0,1-.088-.226l-.05-.3a40.32,40.32,0,0,1-2.526-25.134c3.242-8.306,3.72-17.643,1.445-27.81-2.3-6.044-2.488-11.523-.528-16.185l-.05-.34a254,254,0,0,1,6.484-48.218.628.628,0,0,1,.6-.49h.013a.609.609,0,0,1,.6.465,238.249,238.249,0,0,1,7.691,54.816.557.557,0,0,1-.063.276c-5.253,11.4-5.843,22.947-1.734,34.332a.639.639,0,0,1,.013.4c.012.038.012.076.025.126a58.206,58.206,0,0,1-2.551,24.957.552.552,0,0,1-.151.251.6.6,0,0,1-.076.352c-3.392,6.346-3.682,10.581-.867,12.58H395.6c-8.5-5.492-10.455-14.565-5.805-26.981a.656.656,0,0,1,.15-.239.489.489,0,0,1,.051-.226c7.276-18.171,8.884-34.885,4.75-49.676-.88-3.116.666-11.523,4.712-25.723a207.4,207.4,0,0,0-2.966-61.589.449.449,0,0,1-.012-.126.851.851,0,0,0-.025-.239.4.4,0,0,1-.038-.176l-.251-5.077v-.037c-.038-3.029,0-6,.125-8.822v-.264c.629-11.838,3.1-22.343,7.352-31.215a.628.628,0,0,1,1.194.264c.075,7.678,2.048,13.986,5.856,18.774l.012-.013a.633.633,0,1,1,.83.956l-.5.427c0,.012,0,.012-.013.012a.706.706,0,0,1-.188.113,25.151,25.151,0,0,0-13.283,10.883v.088q-.169,3.921-.138,8.093a54.441,54.441,0,0,0,23.474-8.746.6.6,0,0,1,.189-.076C424.273,222.779,425.379,220.329,424.449,216.157Zm-74.218,5.7a.629.629,0,0,1-1.257,0v-.038a50.966,50.966,0,0,0-10.958-7.628,1.377,1.377,0,0,0-.44-.2.648.648,0,0,1-.088-.892,29.963,29.963,0,0,0,6.962-20.245V192.8a.736.736,0,0,1,.05-.226l.189-.427a.63.63,0,1,1,1.156.5l-.1.214a87.158,87.158,0,0,1,4.486,28.69Zm29.908-6.6a7.426,7.426,0,0,1-5.466,2.262,7.7,7.7,0,0,1-7.791-7.791,7.426,7.426,0,0,1,2.262-5.466,7.54,7.54,0,0,1,5.529-2.325,7.919,7.919,0,0,1,7.791,7.791A7.54,7.54,0,0,1,380.139,215.264Z"/>
              <path d="M243.327,65.634a23.02,23.02,0,0,1-3.481,4.034.55.55,0,0,0-.151.213c-1.747,4.135-1.671,8.709.214,13.623L230.4,107.116,220.28,83.064c1.6-3.707,1.734-7.967.427-12.667a.542.542,0,0,0-.138-.252.656.656,0,0,0-.151-.666,19.176,19.176,0,0,1-3.179-3.845c-2.35-3.707-1.76-6.673,1.834-9.061a.656.656,0,0,0,.277-.59c-.616-5.793.314-9.966,2.752-12.416,2.237-2.249,5.856-3.142,10.744-2.664,3.657.415,6.372,1.759,8.068,4.009,2.224,2.928,2.865,7.54,1.885,13.672a.591.591,0,0,0,.214.578C245,60.808,245.1,62.869,243.327,65.634Z"/>
              <path d="M323.15,8.217,312.544,1.431c-5.391,3.368-6.962,8.734-4.813,16.362.691,4.172-1.885,9.689-7.88,16.915l-.339.314c-7.879,6.962-12.7,14.665-14.351,22.871a1.079,1.079,0,0,1-.088.214l-.163.251a.652.652,0,0,1-.226.226c-8.659,4.612-14.414,11.3-17.1,19.868a.655.655,0,0,1-.477.427C256.7,80.965,249.736,87,246.393,96.774l-11.637,26.314a.632.632,0,0,1-.578.377h-5.717a.632.632,0,0,1-.578-.377L215.065,93.745C212.111,85.552,205.7,80.613,196,79.03a.6.6,0,0,1-.49-.39C191.339,67.871,185.005,60.6,176.724,57a.617.617,0,0,1-.377-.654c.013-.088.025-.163.038-.251.942-8.834-3.393-15.357-13.283-19.868a.488.488,0,0,1-.164-.113,32.534,32.534,0,0,1-9.224-16.173.619.619,0,0,1,.164-.6.6.6,0,0,1,.025-.151c2.237-8.194,2.011-13.157-.653-14.339a.7.7,0,0,1-.2-.138,6.3,6.3,0,0,0-4.373-2.224c-1.47.012-2.991.842-4.524,2.463a.612.612,0,0,1-.339.188A4.2,4.2,0,0,0,140.7,7.061c-1.031,1.747-.868,4.675.49,8.734l7.426,10.254a.566.566,0,0,1,.088.2C153.2,42.5,160.626,55.9,170.78,66.061a.824.824,0,0,1,.151.214c5.2,13.17,14.213,25.183,26.767,35.727a.609.609,0,0,1,.226.49c-.239,12.189,2.475,22.984,8.08,32.082a.681.681,0,0,1,.063.515c3.242,10.091,4,19.793,2.224,28.841a.627.627,0,0,1,.226.678c-7.439,26.252-7.3,54.188.44,83.04,1.848,7.49,1.7,13.459-.414,17.757-.164.327-.34.641-.528.955-2.312,6.158.98,24.2,9.865,53.534a.594.594,0,0,1-.013.389.51.51,0,0,1,.038.189c.465,7.188-2.564,12.805-9.011,16.751h16.94a.576.576,0,0,1,.126-.264c2.953-3.72,3.217-7.339.817-11.046a.572.572,0,0,1-.1-.377l.025-.515a60.132,60.132,0,0,1-1.8-27.684.611.611,0,0,1-.239-.729c4.424-11.976,3.7-23.537-2.186-34.395a.633.633,0,0,1-.063-.452c.038-.126.063-.239.113-.365a297.444,297.444,0,0,0,8.231-59.163c-.025-.352-.025-.754-.037-1.156a.622.622,0,0,1,.615-.641.656.656,0,0,1,.641.615c.013.39.013.792.038,1.182v.012a251.83,251.83,0,0,0,8.143,60.018l.05.377a.682.682,0,0,1-.05.315c-4.838,11.335-5.491,22.041-1.935,31.831a.715.715,0,0,1,.038.226l-.629,23.814a.662.662,0,0,1-.151.4c-4.247,4.825-5.366,10.807-3.33,17.756a.782.782,0,0,1,.025.239h18.2c-6.862-4.31-9.186-11.033-6.9-20.006,8.847-24.681,11.636-42.085,8.281-51.8a24.438,24.438,0,0,1-.314-17.279c7.6-27.182,8.156-54.225,1.646-80.351a.642.642,0,0,1-.012-.151v-.44a64.715,64.715,0,0,1,2.1-34.307l.038-.439a.527.527,0,0,1,.038-.2,116.518,116.518,0,0,0,7.653-29.782.659.659,0,0,1,.251-.428c13.585-10.342,22.758-22.431,27.27-35.953a.671.671,0,0,1,.188-.276c5.894-5.077,11.021-13.208,15.243-24.191,3.092-9.249,7.038-16.789,11.7-22.394C323.426,15.254,324.6,11.66,323.15,8.217ZM236.88,138.859a7.426,7.426,0,0,1-5.466,2.262,7.7,7.7,0,0,1-7.792-7.791,7.426,7.426,0,0,1,2.262-5.466,7.542,7.542,0,0,1,5.53-2.325,7.919,7.919,0,0,1,7.791,7.791A7.54,7.54,0,0,1,236.88,138.859Z"/>
              <path d="M113.074,209.283a143.857,143.857,0,0,0,25.46-9.136c2.815-5.228.741-15.332-6.145-30.047a.657.657,0,0,1-.063-.3.683.683,0,0,1-.063-.351c2.086-15.91-.741-24.518-8.382-25.574-6.22.315-11.36-1.357-15.2-4.926l-15.8,37.977c0,.012-.013.025-.013.037a.742.742,0,0,1,.063.289.623.623,0,0,1-.628.629H85.893a.625.625,0,0,1-.578-.39l-15.8-38.139c-2.827,2.814-6.949,4.385-12.24,4.662a.586.586,0,0,1-.15-.013.621.621,0,0,1-.39.2c-7.955.805-11.486,8.9-10.493,24.028a.533.533,0,0,1-.1.364,49.605,49.605,0,0,0-7.1,24.769c-.9,4.285.214,6.735,3.406,7.6a.561.561,0,0,1,.188.075,54.6,54.6,0,0,0,23.45,8.746c.037-2.8,0-5.554-.139-8.193a25.038,25.038,0,0,0-13.257-10.9.308.308,0,0,1-.088-.051.468.468,0,0,1-.113-.062l-.49-.4a.634.634,0,0,1,.8-.98l.012.013c3.833-4.763,5.806-11.084,5.869-18.787a.617.617,0,0,1,.49-.6.626.626,0,0,1,.7.339c4.21,8.809,6.66,19.227,7.3,30.939l.138.1a.649.649,0,0,1,.088.893.869.869,0,0,1-.163.138c.113,2.676.138,5.454.088,8.269l-.013.012c-.037,1.659-.113,3.368-.213,5.1a5.166,5.166,0,0,1-.114.528,208.033,208.033,0,0,0-2.9,61.7c4.008,14.075,5.554,22.482,4.687,25.611-4.122,14.8-2.526,31.517,4.75,49.675a.492.492,0,0,1,.05.227.705.705,0,0,1,.151.226,34.482,34.482,0,0,1,2.451,11.523,17.016,17.016,0,0,1-8.257,15.47H85.629c2.815-2.011,2.526-6.246-.855-12.579a.594.594,0,0,1-.075-.352.561.561,0,0,1-.151-.252c-.239-.691-.465-1.394-.666-2.1A58.164,58.164,0,0,1,82,342.438c.013-.05.013-.088.025-.125a.628.628,0,0,1,.013-.4c4.122-11.4,3.531-22.959-1.772-34.357a.567.567,0,0,1-.051-.289,240.279,240.279,0,0,1,7.716-54.777.659.659,0,0,1,.616-.465.617.617,0,0,1,.6.49,252.841,252.841,0,0,1,6.447,48.117l-.013.415c1.961,4.687,1.772,10.166-.552,16.3-2.225,10.078-1.747,19.4,1.445,27.634a40.1,40.1,0,0,1-.717,20.32,45,45,0,0,1-1.809,4.9l-.05.3a.634.634,0,0,1-.088.227c-2.363,3.807-2.941,6.961-1.709,9.374a.59.59,0,0,1,.05.478H110.46c-6.4-2.865-9.349-8.068-8.8-15.507a37.619,37.619,0,0,1,2.048-9.111c4.8-9.061,7.15-20.924,7-35.35-.013-.038-.026-.088-.038-.126a55.8,55.8,0,0,1-1.269-23.512.54.54,0,0,1,.037-.15c6.447-14.3,8.433-31.543,5.894-51.222a.374.374,0,0,1,0-.163l.076-.641a106.719,106.719,0,0,1-2.815-34.96A.627.627,0,0,1,113.074,209.283Zm4.587-39.359a.629.629,0,0,1,.377-.8.619.619,0,0,1,.8.377l.164.44v.012a.477.477,0,0,1,.025.226,30.2,30.2,0,0,0,7,20.245.647.647,0,0,1-.088.892.669.669,0,0,1-.339.139.728.728,0,0,1-.1.062,51.463,51.463,0,0,0-10.959,7.628v.025a.638.638,0,0,1-.615.641h-.013a.627.627,0,0,1-.628-.615v-.315c0-.414-.013-.816-.013-1.231a86.942,86.942,0,0,1,4.474-27.483ZM94.388,192.582a7.723,7.723,0,0,1-5.542,2.262,7.428,7.428,0,0,1-5.467-2.262,7.543,7.543,0,0,1-2.324-5.53,7.918,7.918,0,0,1,7.791-7.791,7.54,7.54,0,0,1,5.529,2.325,7.426,7.426,0,0,1,2.262,5.466A7.713,7.713,0,0,1,94.388,192.582Z"/>
              <path d="M99.477,138.294,89.361,162.346l-9.513-23.612c1.885-4.926,1.948-9.513.214-13.622a.888.888,0,0,0-.139-.214c-3.191-3.054-4.787-5.63-4.712-7.666a3.756,3.756,0,0,1,1.533-2.865.613.613,0,0,0,.214-.578c-.98-6.145-.352-10.744,1.872-13.672,1.709-2.237,4.424-3.582,8.068-3.984,4.9-.478,8.533.415,10.77,2.664,2.425,2.451,3.355,6.623,2.739,12.416a.659.659,0,0,0,.277.591c2.01,1.344,3.1,2.877,3.254,4.574.214,2.337-1.332,5.152-4.6,8.331a.657.657,0,0,0-.151.667.534.534,0,0,0-.138.251C97.73,130.327,97.869,134.587,99.477,138.294Z"/>
            </g>
          </g>
        </g>
        <path class="cls-1" d="M237.544,382.606v54.135H224.035V407.717a51.08,51.08,0,0,0-.3-7.556,2.82,2.82,0,0,0-1.656-1.923q-1.355-.652-6.035-.653h-1.338v-6.31q9.8-2.111,14.88-8.669Z"/>
        <path class="cls-1" d="M103.65,451.705v9.228H73.924l.008-7.724q13.207-21.6,15.7-26.733t2.491-8.009a5.824,5.824,0,0,0-.753-3.294,2.606,2.606,0,0,0-2.294-1.086,2.52,2.52,0,0,0-2.294,1.2q-.754,1.2-.753,4.781v5.15h-12.1v-1.974a42.945,42.945,0,0,1,.468-7.172A12.592,12.592,0,0,1,76.7,410.91a11.577,11.577,0,0,1,4.781-3.845,17.32,17.32,0,0,1,7.055-1.3q8.06,0,12.189,3.995a13.482,13.482,0,0,1,4.129,10.115,24.05,24.05,0,0,1-2.324,9.831q-2.325,5.184-13.693,22Z"/>
        <path class="cls-1" d="M386.505,446.893a8.2,8.2,0,0,1,4.5,3.053q1.479,2.121,1.478,9.943a22.516,22.516,0,0,1-1.444,9.011,9.809,9.809,0,0,1-5,4.874,21.469,21.469,0,0,1-9.1,1.669q-6.31,0-9.91-1.94a9.744,9.744,0,0,1-4.731-4.751q-1.135-2.811-1.134-9.756v-3.85h13.277v7.908a11.785,11.785,0,0,0,.41,4.015,1.815,1.815,0,0,0,1.825.857,2.007,2.007,0,0,0,2.037-1.083q.492-1.083.493-5.652v-3.369a9.1,9.1,0,0,0-.691-4.089,3.331,3.331,0,0,0-2.037-1.7,22.928,22.928,0,0,0-5.225-.466V444.5a29.191,29.191,0,0,0,5.85-.33,2.472,2.472,0,0,0,1.61-1.443,9.176,9.176,0,0,0,.493-3.489v-2.706a6.539,6.539,0,0,0-.575-3.368,2.046,2.046,0,0,0-1.791-.811,2.012,2.012,0,0,0-1.89.856,8.363,8.363,0,0,0-.509,3.654v4H361.169v-4.151q0-6.975,3.483-9.427t11.075-2.45q9.5,0,12.882,3.4t3.385,9.435q0,4.086-1.215,5.905A10.671,10.671,0,0,1,386.505,446.893Z"/>
      </g>
    </g>
  </g>
</svg>
